<?xml version="1.0" encoding="utf-8"?>
<!-- Generator: Adobe Illustrator 27.0.0, SVG Export Plug-In . SVG Version: 6.00 Build 0)  -->
<svg version="1.1" id="Layer_1" xmlns="http://www.w3.org/2000/svg" xmlns:xlink="http://www.w3.org/1999/xlink" x="0px" y="0px"
	 viewBox="0 0 226 150" style="enable-background:new 0 0 226 150;" xml:space="preserve">
<g>
	<g>
		<g>
			<g>
				<path d="M79.56,106.95c0,4.96-4.02,8.99-8.98,8.99c-4.96,0-8.98-4.02-8.98-8.99c0-4.96,4.02-8.98,8.98-8.98
					C75.54,97.97,79.56,101.99,79.56,106.95z"/>
			</g>
			<g>
				<path d="M102.84,106.95c0,4.3-3.48,7.79-7.79,7.79c-4.3,0-7.79-3.49-7.79-7.79c0-4.3,3.49-7.78,7.79-7.78
					C99.35,99.17,102.84,102.65,102.84,106.95z"/>
			</g>
			<g>
				<path d="M126.71,106.95c0,3.97-3.22,7.19-7.19,7.19c-3.97,0-7.19-3.22-7.19-7.19c0-3.97,3.22-7.19,7.19-7.19
					C123.5,99.76,126.71,102.98,126.71,106.95z"/>
			</g>
			<g>
				<path d="M149.99,106.95c0,3.31-2.68,5.99-5.99,5.99c-3.31,0-5.99-2.68-5.99-5.99c0-3.31,2.68-5.99,5.99-5.99
					C147.31,100.96,149.99,103.64,149.99,106.95z"/>
			</g>
			<g>
				<path d="M85.96,85.51c0,4.3-3.49,7.79-7.79,7.79c-4.3,0-7.79-3.49-7.79-7.79c0-4.3,3.48-7.79,7.79-7.79
					C82.48,77.72,85.96,81.21,85.96,85.51z"/>
			</g>
			<g>
				<path d="M106.17,85.51c0,3.64-2.95,6.59-6.59,6.59c-3.64,0-6.59-2.95-6.59-6.59c0-3.64,2.95-6.59,6.59-6.59
					C103.22,78.92,106.17,81.87,106.17,85.51z"/>
			</g>
			<g>
				<path d="M123.38,85.51c0,2.98-2.41,5.39-5.39,5.39c-2.98,0-5.39-2.41-5.39-5.39c0-2.98,2.41-5.39,5.39-5.39
					C120.97,80.12,123.38,82.53,123.38,85.51z"/>
			</g>
			<g>
				<path d="M141.19,85.51c0,2.65-2.15,4.79-4.79,4.79s-4.79-2.14-4.79-4.79c0-2.65,2.14-4.79,4.79-4.79S141.19,82.86,141.19,85.51z
					"/>
			</g>
			<g>
				<path d="M94.98,64.22c0,3.64-2.95,6.59-6.59,6.59c-3.64,0-6.59-2.95-6.59-6.59c0-3.64,2.95-6.59,6.59-6.59
					C92.03,57.63,94.98,60.58,94.98,64.22z"/>
			</g>
			<g>
				<path d="M112.68,64.22c0,2.98-2.41,5.39-5.39,5.39c-2.98,0-5.39-2.41-5.39-5.39c0-2.98,2.41-5.39,5.39-5.39
					C110.27,58.83,112.68,61.25,112.68,64.22z"/>
			</g>
			<g>
				<path d="M130.38,64.22c0,2.32-1.88,4.19-4.19,4.19c-2.32,0-4.19-1.88-4.19-4.19c0-2.32,1.88-4.19,4.19-4.19
					C128.5,60.03,130.38,61.91,130.38,64.22z"/>
			</g>
			<g>
				<path d="M103.34,43.04c0,2.98-2.41,5.39-5.39,5.39c-2.98,0-5.39-2.41-5.39-5.39c0-2.98,2.41-5.39,5.39-5.39
					C100.92,37.65,103.34,40.06,103.34,43.04z"/>
			</g>
			<g>
				<path d="M120.23,43.04c0,1.99-1.61,3.59-3.59,3.59c-1.99,0-3.59-1.61-3.59-3.59c0-1.98,1.61-3.59,3.59-3.59
					C118.62,39.44,120.23,41.05,120.23,43.04z"/>
			</g>
			<g>
				<path d="M111.48,21.96c0,2.32-1.88,4.19-4.19,4.19c-2.32,0-4.19-1.88-4.19-4.19c0-2.32,1.88-4.19,4.19-4.19
					C109.6,17.77,111.48,19.65,111.48,21.96z"/>
			</g>
		</g>
		<g>
			<g>
				<path d="M47.17,132.44c0.6,0,0.95-0.35,0.95-0.8c0-0.57-0.45-0.8-1.16-1.28l-0.47-0.31c-0.91-0.61-1.34-1.37-1.34-2.34
					c0-1.28,0.89-2.26,2.27-2.26c0.52,0,1.1,0.15,1.76,0.42v1.92c-0.74-0.54-1.34-0.78-1.72-0.78c-0.47,0-0.76,0.25-0.76,0.66
					c0,0.28,0.16,0.53,0.48,0.74l0.81,0.53c1.01,0.66,1.73,1.26,1.73,2.57c0,1.54-0.95,2.67-2.53,2.67c-0.54,0-1.15-0.14-1.85-0.39
					l-0.14-2.19C45.91,132.11,46.5,132.44,47.17,132.44z"/>
			</g>
			<g>
				<path d="M51.99,125.73h4.28v1.69H53.6v1.48h2.29v1.68H53.6v1.62h2.71v1.72h-4.32V125.73z"/>
			</g>
			<g>
				<path d="M60.9,134.23l-3.28-8.5h1.76l1.64,4.48l1.65-4.48h1.63l-3.28,8.5H60.9z"/>
			</g>
			<g>
				<path d="M65.92,125.73h4.28v1.69h-2.67v1.48h2.29v1.68h-2.29v1.62h2.71v1.72h-4.32V125.73z"/>
			</g>
			<g>
				<path d="M72.58,125.46h0.16l4.33,4.78v-4.51h1.53v8.5h-0.15l-4.34-4.78v4.47h-1.53V125.46z"/>
			</g>
			<g>
				<path d="M86.04,132.44c0.6,0,0.95-0.35,0.95-0.8c0-0.57-0.45-0.8-1.16-1.28l-0.47-0.31c-0.91-0.61-1.35-1.37-1.35-2.34
					c0-1.28,0.89-2.26,2.27-2.26c0.52,0,1.1,0.15,1.76,0.42v1.92c-0.74-0.54-1.34-0.78-1.72-0.78c-0.47,0-0.76,0.25-0.76,0.66
					c0,0.28,0.16,0.53,0.48,0.74l0.82,0.53c1.01,0.66,1.73,1.26,1.73,2.57c0,1.54-0.95,2.67-2.53,2.67c-0.54,0-1.15-0.14-1.85-0.39
					l-0.14-2.19C84.79,132.11,85.38,132.44,86.04,132.44z"/>
			</g>
			<g>
				<path d="M92.44,130.23c0,1.45,0.45,2.16,1.36,2.16c0.86,0,1.35-0.66,1.35-1.97v-4.7h1.48v4.7c0,2.44-1.14,3.76-2.92,3.76
					c-1.8,0-2.93-1.31-2.93-3.75v-4.71h1.64V130.23z"/>
			</g>
			<g>
				<path d="M100.11,125.46h0.12l2.62,5.33l2.47-5.33h0.13l1.45,8.46h-1.58l-0.59-3.74l-1.87,4.04h-0.11l-2-4.1l-0.61,3.8h-1.48
					L100.11,125.46z"/>
			</g>
			<g>
				<path d="M109.86,125.46h0.12l2.62,5.33l2.47-5.33h0.13l1.45,8.46h-1.58l-0.59-3.74l-1.86,4.04h-0.11l-2-4.1l-0.61,3.8h-1.48
					L109.86,125.46z"/>
			</g>
			<g>
				<path d="M118.75,125.73h1.66v8.19h-1.66V125.73z"/>
			</g>
			<g>
				<path d="M124.51,127.44h-2.21v-1.71h6.07v1.71h-2.2v6.48h-1.66V127.44z"/>
			</g>
			<g>
				<path d="M134.79,127.44h-2.21v-1.71h6.07v1.71h-2.2v6.48h-1.66V127.44z"/>
			</g>
			<g>
				<path d="M140.51,125.73h1.79c0.88,0,1.57,0.07,2.17,0.58c0.52,0.44,0.82,1.12,0.82,1.83c0,1.03-0.45,1.83-1.3,2.27l2.12,3.52
					h-1.89l-1.86-3.22h-0.24v3.22h-1.61V125.73z M142.12,127.22v2.27h0.35c0.84,0,1.29-0.42,1.29-1.16c0-0.82-0.45-1.11-1.36-1.11
					H142.12z"/>
			</g>
			<g>
				<path d="M147.83,125.73h4.28v1.69h-2.67v1.48h2.29v1.68h-2.29v1.62h2.71v1.72h-4.32V125.73z"/>
			</g>
			<g>
				<path d="M154.48,125.73h1.64v3.56l2.3-3.56h1.97l-2.62,3.9l2.83,4.29h-2l-2.47-3.77v3.77h-1.64V125.73z"/>
			</g>
			<g>
				<path d="M163.89,132.44c0.6,0,0.95-0.35,0.95-0.8c0-0.57-0.45-0.8-1.16-1.28l-0.47-0.31c-0.91-0.61-1.35-1.37-1.35-2.34
					c0-1.28,0.89-2.26,2.27-2.26c0.52,0,1.1,0.15,1.76,0.42v1.92c-0.74-0.54-1.35-0.78-1.72-0.78c-0.47,0-0.76,0.25-0.76,0.66
					c0,0.28,0.16,0.53,0.48,0.74l0.81,0.53c1.01,0.66,1.73,1.26,1.73,2.57c0,1.54-0.95,2.67-2.53,2.67c-0.54,0-1.15-0.14-1.85-0.39
					l-0.14-2.19C162.63,132.11,163.22,132.44,163.89,132.44z"/>
			</g>
		</g>
	</g>
	<g>
		<path d="M171.52,123.46v0.43h-1.12v3.68h-0.54v-3.68h-1.13v-0.43H171.52z"/>
		<path d="M176.65,123.49v4.08h-0.54v-3.04l-1.35,3.04h-0.38l-1.36-3.05v3.05h-0.54v-4.08h0.58l1.51,3.37l1.51-3.37H176.65z"/>
	</g>
</g>
</svg>
