<?xml version="1.0" standalone="no"?>
<!DOCTYPE svg PUBLIC "-//W3C//DTD SVG 20010904//EN"
 "http://www.w3.org/TR/2001/REC-SVG-20010904/DTD/svg10.dtd">
<svg version="1.0" xmlns="http://www.w3.org/2000/svg"
 width="1346.000000pt" height="1575.000000pt" viewBox="0 0 1346.000000 1575.000000"
 preserveAspectRatio="xMidYMid meet">

<g transform="translate(0.000000,1575.000000) scale(0.100000,-0.100000)"
fill="#000000" stroke="none">
<path d="M11750 10560 c0 -17 7 -20 50 -20 l50 0 0 -155 c0 -148 1 -155 20
-155 19 0 20 7 20 154 l0 155 47 3 c36 2 49 7 51 21 3 15 -8 17 -117 17 -114
0 -121 -1 -121 -20z"/>
<path d="M12070 10406 c0 -168 1 -176 20 -176 18 0 20 8 22 128 l3 127 47
-100 c67 -141 72 -150 88 -150 8 0 36 50 70 125 l55 124 3 -127 c2 -119 4
-127 22 -127 19 0 20 8 20 176 l0 175 -22 -3 c-18 -2 -34 -28 -81 -133 -32
-71 -62 -133 -66 -138 -4 -4 -35 55 -68 130 -54 121 -65 138 -87 141 l-26 3 0
-175z"/>
<path d="M5850 7955 l0 -2515 65 0 65 0 0 2515 0 2515 -65 0 -65 0 0 -2515z"/>
<path d="M6947 10270 c-131 -34 -205 -130 -221 -290 -8 -75 5 -155 36 -220 13
-28 76 -101 168 -195 81 -82 155 -166 165 -185 10 -20 20 -66 23 -107 6 -86
-11 -123 -56 -123 -58 0 -72 31 -72 164 l0 106 -137 0 -136 0 6 -127 c10 -213
49 -298 163 -354 65 -32 74 -34 179 -34 95 0 117 4 157 24 26 13 61 38 77 56
66 75 104 256 83 396 -18 128 -52 179 -228 354 -124 122 -155 158 -165 193
-21 73 24 122 87 93 22 -10 24 -16 24 -76 l0 -65 140 0 140 0 0 28 c0 64 -23
161 -51 219 -33 69 -72 104 -140 128 -54 20 -190 28 -242 15z"/>
<path d="M7800 9590 l0 -680 280 0 280 0 0 130 0 130 -140 0 -140 0 0 155 0
155 125 0 125 0 0 130 0 130 -125 0 -125 0 0 135 0 135 130 0 130 0 0 130 0
130 -270 0 -270 0 0 -680z"/>
<path d="M8736 10213 c3 -32 41 -337 83 -678 l76 -620 185 -3 185 -2 79 642
c43 354 81 660 84 681 l5 37 -129 0 -129 0 -39 -407 c-21 -225 -41 -428 -44
-453 l-6 -45 -7 45 c-3 25 -26 228 -50 453 l-43 407 -129 0 -128 0 7 -57z"/>
<path d="M9830 9590 l0 -680 280 0 280 0 0 130 0 130 -140 0 -140 0 0 155 0
155 125 0 125 0 0 130 0 130 -125 0 -125 0 0 135 0 135 130 0 130 0 0 130 0
130 -270 0 -270 0 0 -680z"/>
<path d="M10790 9590 l0 -680 130 0 130 0 0 327 c0 182 4 323 9 317 4 -5 36
-152 71 -326 l63 -318 133 0 134 0 0 680 0 680 -130 0 -130 0 -1 -317 c0 -193
-4 -310 -9 -298 -5 11 -30 130 -55 265 -25 135 -50 269 -56 298 l-10 52 -140
0 -139 0 0 -680z"/>
<path d="M3060 10168 c-24 -13 -58 -40 -74 -61 -28 -35 -31 -45 -31 -112 0
-67 3 -77 31 -112 36 -46 105 -83 154 -83 59 0 136 45 167 97 57 98 22 217
-79 267 -64 32 -110 33 -168 4z"/>
<path d="M2659 9263 c-50 -8 -132 -66 -162 -114 -35 -57 -45 -138 -26 -206 18
-66 96 -144 161 -162 147 -41 289 44 320 189 22 106 -40 228 -137 271 -44 19
-115 29 -156 22z"/>
<path d="M3490 9158 c-52 -36 -73 -71 -77 -130 -3 -42 1 -62 19 -93 26 -45 93
-85 143 -85 50 0 117 40 143 85 18 31 22 51 19 93 -6 91 -72 152 -162 152 -38
0 -61 -6 -85 -22z"/>
<path d="M6882 8381 c-103 -36 -152 -112 -159 -251 -8 -137 11 -176 167 -335
70 -71 135 -145 145 -164 22 -44 26 -151 6 -175 -9 -11 -25 -16 -45 -14 -40 4
-55 44 -55 151 l-1 77 -111 0 -111 0 4 -122 c3 -106 8 -131 30 -179 15 -32 40
-67 60 -82 79 -61 253 -73 340 -25 89 49 133 163 126 327 -6 144 -27 182 -190
347 -73 74 -136 142 -140 152 -11 28 -9 77 4 90 7 7 24 12 38 12 38 0 50 -18
50 -77 l0 -53 116 0 117 0 -5 73 c-6 97 -42 175 -98 216 -71 52 -192 65 -288
32z"/>
<path d="M7490 7935 c0 -289 4 -472 11 -505 25 -117 107 -186 235 -197 139
-11 241 44 286 155 22 56 23 65 26 530 l3 472 -115 0 -116 0 0 -458 c0 -440
-1 -460 -19 -476 -11 -10 -30 -16 -42 -14 -47 6 -49 23 -49 501 l0 447 -110 0
-110 0 0 -455z"/>
<path d="M8280 7815 l0 -575 105 0 105 0 1 403 1 402 63 -370 c35 -203 66
-385 70 -402 l6 -33 102 0 103 0 59 373 c32 204 62 386 66 402 4 17 7 -151 8
-372 l1 -403 105 0 105 0 0 575 0 575 -178 0 -177 0 -44 -327 c-24 -181 -47
-334 -50 -340 -4 -7 -26 130 -50 305 -23 174 -45 327 -48 340 -5 22 -7 22
-179 22 l-174 0 0 -575z"/>
<path d="M9420 7815 l0 -575 105 0 105 0 1 403 1 402 63 -370 c35 -203 66
-385 70 -402 l6 -33 102 0 103 0 59 373 c32 204 62 386 66 402 4 17 7 -151 8
-372 l1 -403 105 0 105 0 0 575 0 575 -178 0 -177 0 -44 -327 c-24 -181 -47
-334 -50 -340 -4 -7 -26 130 -50 305 -23 174 -45 327 -48 340 -5 22 -7 22
-179 22 l-174 0 0 -575z"/>
<path d="M10560 7815 l0 -575 110 0 110 0 0 575 0 575 -110 0 -110 0 0 -575z"/>
<path d="M10980 8280 l0 -110 70 0 70 0 0 -465 0 -465 115 0 115 0 0 465 0
465 70 0 70 0 0 110 0 110 -255 0 -255 0 0 -110z"/>
<path d="M2195 8331 c-87 -23 -167 -88 -207 -170 -35 -70 -33 -186 5 -263 90
-182 336 -224 482 -82 67 64 90 121 90 219 0 67 -5 88 -27 130 -34 64 -90 118
-152 146 -53 23 -143 33 -191 20z"/>
<path d="M3034 8256 c-123 -57 -177 -213 -115 -334 43 -84 127 -135 221 -135
182 -1 302 185 226 349 -59 126 -205 179 -332 120z"/>
<path d="M3956 8215 c-78 -28 -129 -98 -129 -180 0 -170 191 -255 320 -142 44
39 63 82 63 142 0 83 -60 163 -138 185 -48 13 -68 12 -116 -5z"/>
<path d="M1720 7399 c-112 -23 -208 -99 -258 -207 -23 -49 -27 -70 -27 -147 0
-82 3 -97 33 -157 36 -74 95 -132 170 -169 40 -20 62 -24 152 -24 90 0 112 4
152 24 75 37 134 95 170 169 30 60 33 75 33 157 0 82 -3 97 -33 157 -72 147
-236 229 -392 197z"/>
<path d="M2671 7329 c-198 -78 -254 -341 -105 -494 64 -67 121 -90 219 -90 64
0 89 5 125 24 61 32 117 86 148 146 22 42 26 63 26 130 0 93 -23 151 -83 213
-83 85 -220 114 -330 71z"/>
<path d="M3593 7289 c-148 -27 -235 -174 -191 -321 15 -51 82 -126 133 -149
24 -11 63 -19 100 -19 114 0 209 69 240 174 19 62 19 80 -1 145 -35 119 -157
193 -281 170z"/>
<path d="M4428 7256 c-53 -19 -83 -40 -111 -78 -51 -68 -60 -144 -26 -218 46
-103 142 -153 247 -129 65 14 115 51 147 110 24 44 27 59 23 118 -3 53 -9 77
-31 109 -51 78 -167 119 -249 88z"/>
<path d="M10992 6781 c-103 -36 -152 -112 -159 -251 -8 -137 11 -176 167 -335
70 -71 135 -145 145 -164 22 -44 26 -151 6 -175 -9 -11 -25 -16 -45 -14 -40 4
-55 44 -55 151 l-1 77 -111 0 -111 0 4 -122 c3 -106 8 -131 30 -179 15 -32 40
-67 60 -82 79 -61 253 -73 340 -25 89 49 133 163 126 327 -6 144 -27 182 -190
347 -73 74 -136 142 -140 152 -11 28 -9 77 4 90 7 7 24 12 38 12 38 0 50 -18
50 -77 l0 -53 116 0 117 0 -5 73 c-6 97 -42 175 -98 216 -71 52 -192 65 -288
32z"/>
<path d="M6700 6680 l0 -110 70 0 70 0 0 -465 0 -465 115 0 115 0 0 465 0 465
70 0 70 0 0 110 0 110 -255 0 -255 0 0 -110z"/>
<path d="M7710 6215 l0 -575 115 0 115 0 0 260 0 260 23 0 c12 0 33 -7 45 -16
22 -15 22 -18 22 -260 l0 -244 116 0 116 0 -4 253 c-3 220 -5 256 -21 285 -10
18 -29 38 -42 44 l-25 11 39 33 c53 45 65 100 59 253 -7 160 -31 215 -113 252
-35 16 -67 19 -242 19 l-203 0 0 -575z m324 343 c20 -27 21 -132 3 -168 -10
-20 -21 -26 -55 -28 l-42 -3 0 110 0 111 39 0 c30 0 44 -6 55 -22z"/>
<path d="M8780 6215 l0 -575 240 0 240 0 0 110 0 110 -125 0 -125 0 0 135 0
135 110 0 110 0 0 110 0 110 -110 0 -110 0 0 110 0 110 115 0 115 0 0 110 0
110 -230 0 -230 0 0 -575z"/>
<path d="M9770 6215 l0 -575 115 0 115 0 1 273 1 272 61 -270 62 -270 118 -3
c76 -2 117 1 117 8 0 6 -34 146 -76 313 l-75 302 64 263 64 263 -116 -3 -115
-3 -52 -220 -52 -220 -1 223 -1 222 -115 0 -115 0 0 -575z"/>
<path d="M1350 6456 c-215 -48 -360 -257 -323 -469 55 -323 441 -462 686 -247
90 80 137 187 137 315 0 199 -141 367 -340 405 -65 12 -90 12 -160 -4z"/>
<path d="M2475 6397 c-70 -24 -120 -54 -162 -100 -168 -182 -116 -460 105
-569 61 -30 75 -33 157 -33 76 0 99 5 145 26 77 37 131 87 171 161 33 60 34
67 34 168 0 100 -1 108 -34 168 -64 118 -168 183 -301 189 -44 2 -91 -3 -115
-10z"/>
<path d="M3598 6365 c-60 -23 -125 -72 -158 -121 -48 -69 -63 -124 -58 -212 8
-126 69 -221 181 -279 46 -25 63 -28 147 -28 80 0 102 4 140 24 61 32 126 96
158 156 24 44 27 61 27 145 0 85 -3 101 -28 148 -34 65 -93 123 -155 153 -59
28 -197 36 -254 14z"/>
<path d="M4785 6320 c-82 -21 -139 -64 -183 -139 -24 -40 -27 -57 -27 -131 0
-74 3 -91 27 -130 35 -60 73 -94 133 -121 96 -43 224 -22 298 49 83 78 111
208 67 310 -52 122 -193 194 -315 162z"/>
</g>
</svg>
