<?xml version="1.0" encoding="utf-8"?>
<!-- Generator: Adobe Illustrator 27.0.0, SVG Export Plug-In . SVG Version: 6.00 Build 0)  -->
<svg version="1.1" id="Layer_1" xmlns="http://www.w3.org/2000/svg" xmlns:xlink="http://www.w3.org/1999/xlink" x="0px" y="0px"
	 viewBox="0 0 226 150" style="enable-background:new 0 0 226 150;" xml:space="preserve">
<g>
	<g>
		<g>
			<g>
				<path d="M35.12,110.91c0,3.88-3.14,7.02-7.02,7.02c-3.88,0-7.02-3.14-7.02-7.02c0-3.87,3.14-7.01,7.02-7.01
					C31.97,103.89,35.12,107.03,35.12,110.91z"/>
			</g>
			<g>
				<path d="M53.29,110.91c0,3.36-2.72,6.08-6.08,6.08c-3.36,0-6.08-2.72-6.08-6.08c0-3.36,2.72-6.08,6.08-6.08
					C50.57,104.83,53.29,107.55,53.29,110.91z"/>
			</g>
			<g>
				<path d="M71.94,110.91c0,3.1-2.51,5.61-5.61,5.61c-3.1,0-5.61-2.51-5.61-5.61c0-3.1,2.51-5.61,5.61-5.61
					C69.43,105.3,71.94,107.81,71.94,110.91z"/>
			</g>
			<g>
				<path d="M90.11,110.91c0,2.58-2.09,4.68-4.68,4.68c-2.58,0-4.68-2.09-4.68-4.68c0-2.58,2.09-4.68,4.68-4.68
					C88.02,106.23,90.11,108.33,90.11,110.91z"/>
			</g>
			<g>
				<path d="M40.12,94.17c0,3.36-2.72,6.08-6.08,6.08c-3.36,0-6.08-2.72-6.08-6.08c0-3.36,2.72-6.08,6.08-6.08
					C37.39,88.09,40.12,90.81,40.12,94.17z"/>
			</g>
			<g>
				<path d="M55.9,94.17c0,2.84-2.31,5.15-5.14,5.15c-2.84,0-5.15-2.3-5.15-5.15c0-2.84,2.3-5.14,5.15-5.14
					C53.59,89.02,55.9,91.32,55.9,94.17z"/>
			</g>
			<g>
				<path d="M69.34,94.17c0,2.33-1.88,4.21-4.21,4.21c-2.33,0-4.21-1.88-4.21-4.21c0-2.32,1.88-4.21,4.21-4.21
					C67.45,89.96,69.34,91.84,69.34,94.17z"/>
			</g>
			<g>
				<path d="M83.24,94.17c0,2.07-1.68,3.74-3.74,3.74c-2.07,0-3.74-1.67-3.74-3.74c0-2.07,1.67-3.74,3.74-3.74
					C81.57,90.42,83.24,92.1,83.24,94.17z"/>
			</g>
			<g>
				<path d="M47.16,77.54c0,2.84-2.3,5.15-5.14,5.15c-2.84,0-5.14-2.3-5.14-5.15c0-2.84,2.3-5.14,5.14-5.14
					C44.85,72.4,47.16,74.7,47.16,77.54z"/>
			</g>
			<g>
				<path d="M60.98,77.54c0,2.33-1.88,4.21-4.21,4.21c-2.33,0-4.21-1.88-4.21-4.21c0-2.32,1.88-4.21,4.21-4.21
					C59.09,73.33,60.98,75.22,60.98,77.54z"/>
			</g>
			<g>
				<path d="M74.8,77.54c0,1.81-1.47,3.27-3.27,3.27c-1.81,0-3.27-1.47-3.27-3.27c0-1.81,1.46-3.27,3.27-3.27
					C73.33,74.27,74.8,75.73,74.8,77.54z"/>
			</g>
			<g>
				<path d="M53.68,61c0,2.33-1.89,4.21-4.21,4.21c-2.33,0-4.21-1.88-4.21-4.21c0-2.32,1.88-4.21,4.21-4.21
					C51.8,56.79,53.68,58.67,53.68,61z"/>
			</g>
			<g>
				<path d="M66.87,61c0,1.55-1.26,2.81-2.81,2.81c-1.55,0-2.81-1.26-2.81-2.81c0-1.55,1.26-2.81,2.81-2.81
					C65.61,58.19,66.87,59.45,66.87,61z"/>
			</g>
			<g>
				<path d="M60.04,44.54c0,1.81-1.47,3.27-3.27,3.27c-1.81,0-3.27-1.47-3.27-3.27c0-1.81,1.47-3.27,3.27-3.27
					C58.58,41.27,60.04,42.73,60.04,44.54z"/>
			</g>
		</g>
		<g>
			<g>
				<rect x="102.31" y="36.56" width="2.24" height="84.67"/>
			</g>
		</g>
		<g>
			<path d="M122.9,63.07c-2.09,0-3.6-0.52-4.52-1.56s-1.39-2.7-1.39-4.97V54.3h4.53v2.86c0,0.53,0.08,0.94,0.24,1.24
				c0.16,0.3,0.44,0.45,0.84,0.45c0.42,0,0.71-0.12,0.87-0.36c0.16-0.24,0.24-0.64,0.24-1.2c0-0.7-0.07-1.29-0.21-1.76
				c-0.14-0.47-0.38-0.93-0.72-1.36c-0.34-0.43-0.82-0.93-1.42-1.5l-2.06-1.95c-1.53-1.45-2.3-3.11-2.3-4.97
				c0-1.95,0.45-3.44,1.36-4.47c0.91-1.02,2.22-1.54,3.94-1.54c2.1,0,3.59,0.56,4.47,1.68c0.88,1.12,1.32,2.82,1.32,5.1h-4.66v-1.58
				c0-0.31-0.09-0.56-0.27-0.73c-0.18-0.17-0.42-0.26-0.72-0.26c-0.36,0-0.63,0.1-0.8,0.3c-0.17,0.2-0.26,0.47-0.26,0.79
				c0,0.32,0.09,0.67,0.26,1.04c0.17,0.37,0.52,0.8,1.03,1.29l2.64,2.54c0.53,0.5,1.01,1.04,1.46,1.6c0.44,0.56,0.8,1.21,1.07,1.95
				c0.27,0.74,0.4,1.65,0.4,2.72c0,2.15-0.4,3.84-1.19,5.06C126.25,62.47,124.87,63.07,122.9,63.07z"/>
			<path d="M135.09,62.87V39.95h9.16v4.43h-4.51v4.47h4.32v4.31h-4.32v5.25h4.8v4.47H135.09z"/>
			<path d="M153.5,62.87l-2.83-22.92h4.36l1.68,15.6l1.5-15.6h4.36l-2.82,22.92H153.5z"/>
			<path d="M169.24,62.87V39.95h9.16v4.43h-4.51v4.47h4.32v4.31h-4.32v5.25h4.8v4.47H169.24z"/>
			<path d="M185.55,62.87V39.95h4.71l2.11,10.97V39.95h4.43v22.91h-4.48l-2.29-11.46v11.46H185.55z"/>
			<path d="M121.88,91.08c-1.76,0-3.03-0.44-3.81-1.31c-0.78-0.88-1.17-2.28-1.17-4.19v-1.88h3.82v2.41c0,0.44,0.07,0.8,0.2,1.05
				c0.14,0.25,0.37,0.38,0.71,0.38c0.35,0,0.59-0.1,0.73-0.31c0.14-0.2,0.2-0.54,0.2-1.01c0-0.59-0.05-1.09-0.17-1.48
				s-0.32-0.78-0.61-1.14c-0.29-0.36-0.69-0.78-1.2-1.26l-1.74-1.64c-1.29-1.22-1.94-2.62-1.94-4.19c0-1.65,0.38-2.9,1.14-3.76
				c0.76-0.86,1.87-1.29,3.32-1.29c1.77,0,3.03,0.47,3.77,1.41c0.74,0.94,1.11,2.38,1.11,4.3h-3.92v-1.33
				c0-0.26-0.08-0.47-0.22-0.61c-0.15-0.15-0.36-0.22-0.61-0.22c-0.31,0-0.54,0.09-0.68,0.26c-0.14,0.17-0.21,0.39-0.21,0.66
				c0,0.27,0.07,0.56,0.22,0.88c0.14,0.31,0.44,0.68,0.87,1.09l2.23,2.14c0.44,0.42,0.86,0.87,1.23,1.34
				c0.38,0.47,0.67,1.02,0.9,1.64c0.23,0.63,0.34,1.39,0.34,2.28c0,1.81-0.33,3.24-1,4.26C124.71,90.57,123.54,91.08,121.88,91.08z"
				/>
			<path d="M134.59,91.08c-1.61,0-2.79-0.45-3.55-1.35c-0.76-0.91-1.14-2.24-1.14-3.99V71.61h3.75v13.98c0,0.32,0.02,0.63,0.05,0.93
				c0.03,0.3,0.12,0.54,0.25,0.73c0.13,0.19,0.34,0.28,0.63,0.28c0.3,0,0.52-0.09,0.65-0.28c0.13-0.18,0.21-0.43,0.25-0.73
				c0.03-0.3,0.05-0.61,0.05-0.93V71.61h3.75v14.14c0,1.75-0.38,3.08-1.14,3.99C137.39,90.63,136.21,91.08,134.59,91.08z"/>
			<path d="M143.24,90.91v-19.3h5.88l1.63,11.77l1.61-11.77h5.94v19.3h-3.54V77l-2.21,13.9h-3.47L146.73,77v13.9H143.24z"/>
			<path d="M162.47,90.91v-19.3h5.88l1.63,11.77l1.61-11.77h5.94v19.3h-3.54V77l-2.21,13.9h-3.47L165.96,77v13.9H162.47z"/>
			<path d="M181.52,90.91v-19.3h3.73v19.3H181.52z"/>
			<path d="M190.91,90.91V75.31h-2.29v-3.71h8.45v3.71h-2.29v15.59H190.91z"/>
			<path d="M118.95,117.86v-15.59h-2.29v-3.71h8.45v3.71h-2.29v15.59H118.95z"/>
			<path d="M133.59,117.86v-19.3h5.92c0.99,0,1.73,0.22,2.24,0.67c0.5,0.45,0.84,1.08,1.01,1.89c0.17,0.81,0.26,1.76,0.26,2.85
				c0,1.05-0.13,1.89-0.4,2.52c-0.27,0.63-0.77,1.06-1.51,1.31c0.6,0.12,1.03,0.43,1.28,0.9c0.24,0.48,0.37,1.1,0.37,1.86v7.3h-3.81
				v-7.56c0-0.56-0.11-0.91-0.35-1.05c-0.23-0.13-0.6-0.2-1.11-0.2v8.81H133.59z M137.52,105.71h0.93c0.53,0,0.8-0.58,0.8-1.74
				c0-0.76-0.06-1.25-0.18-1.48c-0.11-0.23-0.33-0.35-0.65-0.35h-0.9V105.71z"/>
			<path d="M151.71,117.86v-19.3h7.72v3.73h-3.8v3.76h3.64v3.63h-3.64v4.42h4.05v3.76H151.71z"/>
			<path d="M168.37,117.86v-19.3h3.82v7.73l1.8-7.73h3.88l-2.16,8.84l2.61,10.47h-4l-2.11-9.34v9.34H168.37z"/>
			<path d="M190.97,118.04c-1.76,0-3.03-0.44-3.81-1.31s-1.17-2.28-1.17-4.19v-1.89h3.82v2.41c0,0.44,0.07,0.8,0.2,1.05
				c0.14,0.25,0.37,0.38,0.71,0.38c0.35,0,0.59-0.1,0.73-0.31c0.14-0.2,0.2-0.54,0.2-1.01c0-0.59-0.05-1.09-0.17-1.48
				c-0.12-0.4-0.32-0.78-0.61-1.14c-0.29-0.36-0.69-0.78-1.2-1.26l-1.74-1.64c-1.29-1.22-1.94-2.62-1.94-4.19
				c0-1.64,0.38-2.9,1.14-3.76c0.76-0.86,1.87-1.29,3.32-1.29c1.77,0,3.03,0.47,3.77,1.42c0.74,0.94,1.11,2.38,1.11,4.3h-3.93v-1.32
				c0-0.27-0.08-0.47-0.22-0.61c-0.15-0.15-0.36-0.22-0.61-0.22c-0.31,0-0.54,0.08-0.68,0.26c-0.14,0.17-0.21,0.39-0.21,0.66
				c0,0.27,0.07,0.56,0.22,0.87c0.14,0.32,0.44,0.68,0.87,1.09l2.23,2.14c0.44,0.42,0.86,0.87,1.23,1.34
				c0.38,0.47,0.67,1.02,0.9,1.64c0.23,0.63,0.34,1.39,0.34,2.29c0,1.81-0.33,3.24-1,4.26C193.8,117.52,192.63,118.04,190.97,118.04
				z"/>
		</g>
	</g>
	<g>
		<path d="M205.61,34.77v0.62h-1.6v5.24h-0.77v-5.24h-1.61v-0.62H205.61z"/>
		<path d="M212.92,34.81v5.82h-0.76v-4.34l-1.93,4.34h-0.54l-1.94-4.35v4.35h-0.77v-5.82h0.82l2.16,4.81l2.15-4.81H212.92z"/>
	</g>
</g>
</svg>
