<?xml version="1.0" encoding="utf-8"?>
<!-- Generator: Adobe Illustrator 25.1.0, SVG Export Plug-In . SVG Version: 6.00 Build 0)  -->
<svg version="1.1" id="Layer_1" xmlns="http://www.w3.org/2000/svg" xmlns:xlink="http://www.w3.org/1999/xlink" x="0px" y="0px"
	 viewBox="0 0 48 48" style="enable-background:new 0 0 48 48;" xml:space="preserve">
<style type="text/css">
	.st0{fill:#FFFFFF;}
</style>
<path class="st0" d="M45.3,22.4c0,0.8,0,1.6,0,2.5c0,0.3-0.1,0.6-0.1,0.9c-0.5,4.9-2.5,9.1-5.9,12.6c-4.7,4.7-10.4,6.7-17,6.1
	c-4.4-0.4-8.3-2.1-11.6-5.1c-5.3-4.8-7.7-10.7-7.1-17.9C3.8,18.1,5,14.9,7,12.1c3.3-4.9,7.9-7.9,13.8-9c0.8-0.1,1.6-0.2,2.4-0.3
	c0.8,0,1.6,0,2.5,0c0.1,0,0.2,0.1,0.3,0.1C29.2,3,32.2,4,35,5.7c5.4,3.3,8.8,8.1,9.9,14.4C45.1,20.8,45.2,21.6,45.3,22.4z M41.1,24
	c0.2-9.1-7-16.9-16.3-17.1c-9.2-0.2-16.9,7-17.2,16.3c-0.2,9.2,7,16.9,16.3,17.1C33.1,40.6,40.8,33.4,41.1,24z"/>
<path class="st0" d="M34.8,13.2c-0.1,0.3-0.2,0.4-0.2,0.6c-2,4.6-3.9,9.1-5.9,13.6c-0.1,0.2-0.3,0.4-0.4,0.5c-4.6,2-9.3,4-13.9,6
	c-0.1,0-0.2,0.1-0.4,0.1c0.1-0.2,0.1-0.3,0.2-0.5c2-4.6,3.9-9.2,5.9-13.8c0.1-0.2,0.2-0.4,0.4-0.4c4.7-2,9.3-4,14-6
	C34.5,13.3,34.6,13.3,34.8,13.2z M26.5,23.7c0-1.1-0.9-2.1-2.1-2.1c-1.1,0-2.1,0.9-2.1,2.1c0,1.1,0.9,2.1,2.1,2.1
	C25.5,25.8,26.5,24.8,26.5,23.7z"/>
</svg>
