<?xml version="1.0" encoding="utf-8"?>
<!-- Generator: Adobe Illustrator 27.0.0, SVG Export Plug-In . SVG Version: 6.00 Build 0)  -->
<svg version="1.1" id="Layer_1" xmlns="http://www.w3.org/2000/svg" xmlns:xlink="http://www.w3.org/1999/xlink" x="0px" y="0px"
	 viewBox="0 0 323 378" style="enable-background:new 0 0 323 378;" xml:space="preserve">
<style type="text/css">
	.st0{filter:url(#Adobe_OpacityMaskFilter);}
	.st1{fill:url(#SVGID_00000103957216467527089990000006464567122688673680_);}
	.st2{opacity:0.61;mask:url(#SVGID_1_);}
	.st3{fill:url(#SVGID_00000075140995444682355930000017064597378537562552_);}
	.st4{fill:url(#SVGID_00000034810561661115194620000007573224868752205745_);}
	.st5{fill:url(#SVGID_00000043425018013388822200000012040256277492268184_);}
	.st6{fill:url(#SVGID_00000078746467088728197200000012781601513928507316_);}
	.st7{fill:url(#SVGID_00000050665061553940068080000004718369450242819473_);}
	.st8{fill:url(#SVGID_00000076564666656065394050000000301233129386289316_);}
	.st9{fill:url(#SVGID_00000110460937022708414820000011257571321719640992_);}
	.st10{fill:url(#SVGID_00000094596130213711882010000013294954714512982973_);}
	.st11{fill:url(#SVGID_00000029043416345137462480000007721864768503789189_);}
	.st12{fill:url(#SVGID_00000054236934260806336490000002797616187639868824_);}
	.st13{fill:url(#SVGID_00000127005021889062597450000010077205193695252872_);}
	.st14{fill:url(#SVGID_00000170255984460287660550000010158388377671181728_);}
	.st15{fill:url(#SVGID_00000045596321846771295870000007132152906104583063_);}
	.st16{fill:url(#SVGID_00000049211218899076539320000001733774852238857138_);}
	.st17{fill:url(#SVGID_00000029037491805318034140000013255440853507980221_);}
	.st18{fill:url(#SVGID_00000144326595566332578540000011103154766556153510_);}
	.st19{fill:#EA9323;}
	.st20{fill:url(#SVGID_00000013178578181423194120000000614287878210422657_);}
	.st21{fill:url(#SVGID_00000064327284926512015500000013243361175905965502_);}
	.st22{fill:url(#SVGID_00000109013302879978736800000012423350706469333643_);}
	.st23{fill:url(#SVGID_00000068658550238417553860000009500925519222066610_);}
	.st24{fill:url(#SVGID_00000155145519277412413640000009197935986486250422_);}
	.st25{fill:url(#SVGID_00000043458086397926321780000016931907126468716946_);}
	.st26{fill:url(#SVGID_00000181073011186996546780000001972020434227982012_);}
	.st27{fill:url(#SVGID_00000110444445351620396670000016574908223344704425_);}
	.st28{fill:url(#SVGID_00000083063176361133561350000003108426612305160592_);}
	.st29{fill:url(#SVGID_00000013155824910603746400000016086034855821722811_);}
	.st30{fill:url(#SVGID_00000134948875445429029880000016441196389998752950_);}
	.st31{fill:url(#SVGID_00000074429235446825767650000007559008931725655972_);}
	.st32{fill:url(#SVGID_00000032619270730272917880000005544112497972937899_);}
	.st33{fill:url(#SVGID_00000163039812234211708950000011219121573531784845_);}
	.st34{fill:url(#SVGID_00000152224201742376920540000017945849847153361337_);}
	.st35{filter:url(#Adobe_OpacityMaskFilter_00000067195216978132146390000008842546999642128565_);}
	.st36{opacity:0.2;mask:url(#SVGID_00000018924845115344300940000014897788515483190416_);}
	.st37{fill:#FFFFFF;}
	.st38{fill:url(#SVGID_00000062186519590467419500000013234630220782395540_);}
	.st39{filter:url(#Adobe_OpacityMaskFilter_00000098929151943954123880000009156173114318507449_);}
	.st40{opacity:0.2;mask:url(#SVGID_00000081638963716151850960000014201335651201367961_);}
	.st41{fill:url(#SVGID_00000000207524675142752850000005884297872402076302_);}
	.st42{filter:url(#Adobe_OpacityMaskFilter_00000031175666764437887490000018131064959799473306_);}
	.st43{opacity:0.2;mask:url(#SVGID_00000118390003247303465480000017751328804556080058_);}
	.st44{fill:url(#SVGID_00000035500442302333135590000005423905375890870964_);}
	.st45{filter:url(#Adobe_OpacityMaskFilter_00000109713397521214026680000001636447866000085695_);}
	.st46{opacity:0.2;mask:url(#SVGID_00000109001710542319608260000005346050971051295408_);}
	.st47{fill:url(#SVGID_00000183249652986303468980000014522003456084846738_);}
	.st48{filter:url(#Adobe_OpacityMaskFilter_00000048490958288658903250000000759678900030952122_);}
	.st49{opacity:0.2;mask:url(#SVGID_00000132082391670756912800000003663952581370857149_);}
	.st50{fill:url(#SVGID_00000150786181321213139830000014867733138113365172_);}
	.st51{filter:url(#Adobe_OpacityMaskFilter_00000070798324794786856930000005045257915402229899_);}
	.st52{opacity:0.2;mask:url(#SVGID_00000093867334096915719220000000923491139611447987_);}
	.st53{fill:url(#SVGID_00000124842773512681953490000003547084050981334456_);}
	.st54{filter:url(#Adobe_OpacityMaskFilter_00000173863563645454191220000014432660467558404512_);}
	.st55{opacity:0.2;mask:url(#SVGID_00000052085863086238099050000012379561007107032255_);}
	.st56{fill:url(#SVGID_00000129170946742414830370000005033039160880082350_);}
	.st57{filter:url(#Adobe_OpacityMaskFilter_00000157276519349566182040000008322724754782576811_);}
	.st58{opacity:0.2;mask:url(#SVGID_00000007386427546134174020000007185121781133330876_);}
	.st59{fill:url(#SVGID_00000097484894288199137360000009058246538217290900_);}
	.st60{filter:url(#Adobe_OpacityMaskFilter_00000040557744751547370680000010094710756358478994_);}
	.st61{opacity:0.2;mask:url(#SVGID_00000013180452466555406330000009702988696428108453_);}
	.st62{fill:url(#SVGID_00000062903409241029160190000002159582861512524977_);}
	.st63{filter:url(#Adobe_OpacityMaskFilter_00000176761747416486687510000010051411315954126494_);}
	.st64{opacity:0.2;mask:url(#SVGID_00000044877584966204649960000017680418787403464330_);}
	.st65{fill:url(#SVGID_00000135668551904312906360000008376924873689700002_);}
	.st66{filter:url(#Adobe_OpacityMaskFilter_00000066511449923672236940000011330601274747565481_);}
	.st67{opacity:0.2;mask:url(#SVGID_00000142163875571661540930000001007012276360611261_);}
	.st68{fill:url(#SVGID_00000010310579253488927120000012877003443499617460_);}
	.st69{filter:url(#Adobe_OpacityMaskFilter_00000070805282527920067860000006560156887442429866_);}
	.st70{opacity:0.2;mask:url(#SVGID_00000162330972694658771680000011897177844085766834_);}
	.st71{fill:url(#SVGID_00000176032688235111412710000013608920045334550204_);}
	.st72{filter:url(#Adobe_OpacityMaskFilter_00000078045321389896855630000007429667684252074148_);}
	.st73{opacity:0.2;mask:url(#SVGID_00000006677677404072329280000006127542096058924217_);}
	.st74{fill:url(#SVGID_00000098189143698377625520000018183518985758764467_);}
	.st75{filter:url(#Adobe_OpacityMaskFilter_00000106144923838634322280000005903895551050103438_);}
	.st76{opacity:0.2;mask:url(#SVGID_00000158719213619252930540000006291828282956394411_);}
	.st77{opacity:0;fill:#939598;}
	.st78{opacity:0.0435;fill:#939598;}
	.st79{opacity:0.087;fill:#939598;}
	.st80{opacity:0.1304;fill:#939598;}
	.st81{opacity:0.1739;fill:#939598;}
	.st82{opacity:0.2174;fill:#939598;}
	.st83{opacity:0.2609;fill:#939598;}
	.st84{opacity:0.3043;fill:#939598;}
	.st85{opacity:0.3478;fill:#939598;}
	.st86{opacity:0.3913;fill:#939598;}
	.st87{opacity:0.4348;fill:#939598;}
	.st88{opacity:0.4783;fill:#939598;}
	.st89{opacity:0.5217;fill:#939598;}
	.st90{opacity:0.5652;fill:#939598;}
	.st91{opacity:0.6087;fill:#939598;}
	.st92{opacity:0.6522;fill:#939598;}
	.st93{opacity:0.6957;fill:#939598;}
	.st94{opacity:0.7391;fill:#939598;}
	.st95{opacity:0.7826;fill:#939598;}
	.st96{opacity:0.8261;fill:#939598;}
	.st97{opacity:0.8696;fill:#939598;}
	.st98{opacity:0.913;fill:#939598;}
	.st99{opacity:0.9565;fill:#939598;}
	.st100{fill:#939598;}
	.st101{enable-background:new    ;}
	.st102{clip-path:url(#SVGID_00000128468646118080445560000015411540252190896821_);enable-background:new    ;}
	.st103{fill:#9E6410;}
	.st104{fill:#9A610E;}
	.st105{fill:#965F0D;}
	.st106{fill:#935C0B;}
	.st107{fill:#8F5A09;}
	.st108{fill:#8B5707;}
	.st109{fill:#D0831E;}
	.st110{opacity:0;fill:#FFFFFF;}
	.st111{opacity:0.0435;fill:#FFFFFF;}
	.st112{opacity:0.087;fill:#FFFFFF;}
	.st113{opacity:0.1304;fill:#FFFFFF;}
	.st114{opacity:0.1739;fill:#FFFFFF;}
	.st115{opacity:0.2174;fill:#FFFFFF;}
	.st116{opacity:0.2609;fill:#FFFFFF;}
	.st117{opacity:0.3043;fill:#FFFFFF;}
	.st118{opacity:0.3478;fill:#FFFFFF;}
	.st119{opacity:0.3913;fill:#FFFFFF;}
	.st120{opacity:0.4348;fill:#FFFFFF;}
	.st121{opacity:0.4783;fill:#FFFFFF;}
	.st122{opacity:0.5217;fill:#FFFFFF;}
	.st123{opacity:0.5652;fill:#FFFFFF;}
	.st124{opacity:0.6087;fill:#FFFFFF;}
	.st125{opacity:0.6522;fill:#FFFFFF;}
	.st126{opacity:0.6957;fill:#FFFFFF;}
	.st127{opacity:0.7391;fill:#FFFFFF;}
	.st128{opacity:0.7826;fill:#FFFFFF;}
	.st129{opacity:0.8261;fill:#FFFFFF;}
	.st130{opacity:0.8696;fill:#FFFFFF;}
	.st131{opacity:0.913;fill:#FFFFFF;}
	.st132{opacity:0.9565;fill:#FFFFFF;}
	.st133{clip-path:url(#SVGID_00000026861710935013416530000016926573144626544553_);enable-background:new    ;}
	.st134{fill:#A16615;}
	.st135{fill:#9D6314;}
	.st136{fill:#996113;}
	.st137{fill:#965E11;}
	.st138{fill:#925C0F;}
	.st139{fill:#8E590D;}
	.st140{fill:#D48624;}
	.st141{clip-path:url(#SVGID_00000102512465132341506770000013685763045544382604_);enable-background:new    ;}
	.st142{fill:#A6750A;}
	.st143{fill:#A27208;}
	.st144{fill:#9E6F07;}
	.st145{fill:#9A6C05;}
	.st146{fill:#976A04;}
	.st147{fill:#936702;}
	.st148{fill:#DB9917;}
	.st149{opacity:0;fill:#F7F5F0;}
	.st150{opacity:0.0435;fill:#F7F5F0;}
	.st151{opacity:0.087;fill:#F7F5F0;}
	.st152{opacity:0.1304;fill:#F7F5F0;}
	.st153{opacity:0.1739;fill:#F7F5F0;}
	.st154{opacity:0.2174;fill:#F7F5F0;}
	.st155{opacity:0.2609;fill:#F7F5F0;}
	.st156{opacity:0.3043;fill:#F7F5F0;}
	.st157{opacity:0.3478;fill:#F7F5F0;}
	.st158{opacity:0.3913;fill:#F7F5F0;}
	.st159{opacity:0.4348;fill:#F7F5F0;}
	.st160{opacity:0.4783;fill:#F7F5F0;}
	.st161{opacity:0.5217;fill:#F7F5F0;}
	.st162{opacity:0.5652;fill:#F7F5F0;}
	.st163{opacity:0.6087;fill:#F7F5F0;}
	.st164{opacity:0.6522;fill:#F7F5F0;}
	.st165{opacity:0.6957;fill:#F7F5F0;}
	.st166{opacity:0.7391;fill:#F7F5F0;}
	.st167{opacity:0.7826;fill:#F7F5F0;}
	.st168{opacity:0.8261;fill:#F7F5F0;}
	.st169{opacity:0.8696;fill:#F7F5F0;}
	.st170{opacity:0.913;fill:#F7F5F0;}
	.st171{opacity:0.9565;fill:#F7F5F0;}
	.st172{fill:#F7F5F0;}
	.st173{opacity:0.6;clip-path:url(#SVGID_00000097501602214958133250000015290341851267499689_);enable-background:new    ;}
	.st174{opacity:0.6;fill:#DB9917;}
	.st175{opacity:0.6;}
	.st176{opacity:0.6;clip-path:url(#SVGID_00000155867741371857006290000001433671287900484030_);enable-background:new    ;}
	.st177{clip-path:url(#SVGID_00000135648955304034288580000006822470134666765493_);enable-background:new    ;}
	.st178{clip-path:url(#SVGID_00000001632139529917061620000014823051040859839403_);enable-background:new    ;}
	.st179{clip-path:url(#SVGID_00000020370230900017506220000003290591363725184409_);enable-background:new    ;}
	.st180{clip-path:url(#SVGID_00000146484866015977217450000008878934847774854323_);enable-background:new    ;}
	.st181{opacity:0.8;clip-path:url(#SVGID_00000147199969710187555400000010109206694960006047_);enable-background:new    ;}
	.st182{opacity:0.8;fill:#DB9917;}
	.st183{opacity:0.8;}
	.st184{opacity:0.8;clip-path:url(#SVGID_00000132804016863004258710000017803127009948842636_);enable-background:new    ;}
	.st185{opacity:0.6;clip-path:url(#SVGID_00000146498134779453644850000002326468879715709339_);enable-background:new    ;}
	.st186{opacity:0.6;clip-path:url(#SVGID_00000132778034066331894700000005246623274803625359_);enable-background:new    ;}
	.st187{clip-path:url(#SVGID_00000108274123911975972050000014422335043040755856_);enable-background:new    ;}
	.st188{clip-path:url(#SVGID_00000057837617577140552950000001866100457802971806_);enable-background:new    ;}
	.st189{opacity:0.8;clip-path:url(#SVGID_00000169560188664300163430000010610417049164240826_);enable-background:new    ;}
	.st190{opacity:0.8;clip-path:url(#SVGID_00000049938022386932142200000016891849669659827073_);enable-background:new    ;}
	.st191{opacity:0.6;clip-path:url(#SVGID_00000129896114258280885130000016901513774051176342_);enable-background:new    ;}
	.st192{opacity:0.6;clip-path:url(#SVGID_00000132805573165258950400000008628814173390737307_);enable-background:new    ;}
	.st193{opacity:0.8;clip-path:url(#SVGID_00000047053874742302545030000015117056272503833729_);enable-background:new    ;}
	.st194{opacity:0.8;clip-path:url(#SVGID_00000063625890483184807720000004959278870375458735_);enable-background:new    ;}
	.st195{opacity:0.6;clip-path:url(#SVGID_00000045612289659824021130000015030774811324575396_);enable-background:new    ;}
	.st196{fill:none;stroke:#FFFFFF;stroke-width:0.25;stroke-miterlimit:10;}
	.st197{opacity:0.6;clip-path:url(#SVGID_00000114780979034374665520000009987690494775272838_);enable-background:new    ;}
	.st198{opacity:0.6;clip-path:url(#SVGID_00000138539906047160708260000008129461337120400573_);enable-background:new    ;}
	.st199{opacity:0.6;clip-path:url(#SVGID_00000158732330353828545560000003126085754073426365_);enable-background:new    ;}
	.st200{fill:url(#SVGID_00000004506310737437750900000009929576652812483240_);}
	.st201{fill:url(#SVGID_00000114063920139666234270000001790359436012314513_);}
	.st202{fill:url(#SVGID_00000169521507471620907000000002118542073304726406_);}
	.st203{fill:url(#SVGID_00000088839271443886815150000017377804019113857724_);}
	.st204{fill:url(#SVGID_00000165949978739094029550000018227281591303793583_);}
	.st205{fill:url(#SVGID_00000072260906638998444790000000450782240643643824_);}
	.st206{fill:url(#SVGID_00000161606366606318568040000004326717459480038316_);}
	.st207{fill:url(#SVGID_00000124846852028652154150000003673319516315763084_);}
	.st208{fill:url(#SVGID_00000176027199829848051480000003637810529087670680_);}
	.st209{fill:url(#SVGID_00000085251981894740791220000010051856161228838020_);}
	.st210{fill:url(#SVGID_00000072994475901818521760000008475196357541750940_);}
	.st211{fill:url(#SVGID_00000161598078390001493140000018076689813968934297_);}
	.st212{fill:url(#SVGID_00000047022789279048561070000012349853125579125931_);}
	.st213{fill:url(#SVGID_00000077312591410231657480000013760314640005848508_);}
	.st214{fill:url(#SVGID_00000158729573539252069190000009835167717718098821_);}
	.st215{fill:url(#SVGID_00000023248380909587119280000010097684510737993609_);}
	.st216{fill:url(#SVGID_00000098938468706099106110000008365177931614982022_);}
	.st217{fill:url(#SVGID_00000026884021306161482870000010204725802130735788_);}
	.st218{fill:url(#SVGID_00000176742955897667613340000016524281906129778308_);}
	.st219{fill:url(#SVGID_00000141439022165732956370000007975330718577518519_);}
	.st220{fill:url(#SVGID_00000142879256445969443960000002729101710740965800_);}
	.st221{fill:url(#SVGID_00000183208789387047571040000012286040172444688317_);}
	.st222{fill:url(#SVGID_00000048472249640827400770000006964515654542311577_);}
	.st223{fill:url(#SVGID_00000129915409779828230130000008466404295557895562_);}
	.st224{fill:url(#SVGID_00000162319258569057525480000011110529452309292953_);}
	.st225{fill:url(#SVGID_00000180348615348815987780000014660468583801250490_);}
	.st226{fill:url(#SVGID_00000097489211194818646650000017071870639654890423_);}
	.st227{fill:url(#SVGID_00000114051871127696020640000002743697919358346170_);}
	.st228{fill:url(#SVGID_00000124875581894924937140000006798653722160536252_);}
	.st229{fill:url(#SVGID_00000007430507571754870570000013299014626999660199_);}
	.st230{fill:url(#SVGID_00000052782281999424794200000001315634226153145254_);}
	.st231{fill:url(#SVGID_00000126285274740002673810000000384675606779557029_);}
	.st232{fill:url(#SVGID_00000011720625129625084740000002317089856938516923_);}
	.st233{fill:#FBB040;}
	.st234{fill:#F1F2F2;}
	.st235{fill:url(#SVGID_00000147192526061314197780000003848474122569547702_);}
	.st236{fill:url(#SVGID_00000067958859810541872020000004049190965734247555_);}
	.st237{fill:url(#SVGID_00000103987507517549689700000018445714851338808484_);}
	.st238{fill:url(#SVGID_00000067951922676747327540000011446635219975348890_);}
	.st239{fill:url(#SVGID_00000038391870786252453900000010698023170203896451_);}
	.st240{fill:url(#SVGID_00000028316080423221204730000012662513797264285856_);}
	.st241{fill:url(#SVGID_00000035505312665599538460000007172993130550422434_);}
	.st242{fill:url(#SVGID_00000067957575014214334910000002620074529564452527_);}
	.st243{fill:url(#SVGID_00000027577999794004961300000001706392916081366164_);}
	.st244{fill:url(#SVGID_00000052796603297721884250000000112008112879487138_);}
	.st245{fill:url(#SVGID_00000155837942567999318790000002581024257840035751_);}
	.st246{fill:url(#SVGID_00000157271905742194415560000012003941389145811880_);}
	.st247{fill:url(#SVGID_00000061452331183533228620000016622754357833968273_);}
	.st248{fill:url(#SVGID_00000179646477597679308400000013258133164746013113_);}
	.st249{fill:url(#SVGID_00000005959942763632852150000018371153336537555616_);}
	.st250{fill:url(#SVGID_00000017489909505781881800000007150653019545246911_);}
	.st251{fill:url(#SVGID_00000148642705581306381850000006875964686631174809_);}
	.st252{fill:url(#SVGID_00000117641969251139061490000008549106600580204672_);}
	.st253{fill:url(#SVGID_00000051341464810132495860000015711934447619318709_);}
	.st254{fill:url(#SVGID_00000076562843448268591140000010625671385574231980_);}
	.st255{fill:url(#SVGID_00000144301658222646536300000008981468457683672750_);}
	.st256{fill:url(#SVGID_00000154407284668437182920000007679600238506470563_);}
	.st257{fill:url(#SVGID_00000160870401909610415290000001483795119663924401_);}
	.st258{fill:url(#SVGID_00000033335768330040740440000017308169982211127731_);}
	.st259{fill:url(#SVGID_00000065776814526430183260000015152472836652764081_);}
	.st260{fill:url(#SVGID_00000089546090248863258470000014340602774192585395_);}
	.st261{fill:url(#SVGID_00000060734870983062765220000018387552412569547954_);}
	.st262{fill:url(#SVGID_00000049938274421548016970000009886139952852739744_);}
	.st263{fill:url(#SVGID_00000121987058812302182140000000286434282509293451_);}
	.st264{fill:url(#SVGID_00000083050779934163138190000003975995075562036634_);}
	.st265{fill:url(#SVGID_00000091011214893477779940000016427137814048726954_);}
	.st266{fill:url(#SVGID_00000062899627395093206320000001594489038358700433_);}
	.st267{fill:url(#SVGID_00000100344219741751227430000008647153496339412651_);}
	.st268{fill:url(#SVGID_00000134225515877037204510000010338363943836543655_);}
	.st269{fill:url(#SVGID_00000091013394457575572260000017373705818328476850_);}
	.st270{fill:url(#SVGID_00000004526490975222995900000010110574057282561212_);}
	.st271{fill:url(#SVGID_00000114766800930755091240000005150362180022180526_);}
	.st272{fill:url(#SVGID_00000078005208703565511610000014590148277544314291_);}
	.st273{fill:url(#SVGID_00000000203605810749007380000000615425106049373342_);}
	.st274{fill:url(#SVGID_00000011020214260566675340000003129234133957394098_);}
	.st275{fill:url(#SVGID_00000044144856365228185620000007967833336821247658_);}
	.st276{fill:url(#SVGID_00000126293490889490857210000014688944800470378158_);}
	.st277{fill:url(#SVGID_00000006694837009316335820000011994104994737409215_);}
	.st278{fill:url(#SVGID_00000136395190406023930560000015452310915399484340_);}
	.st279{fill:url(#SVGID_00000069363514721321328580000016248225692188988824_);}
	.st280{fill:url(#SVGID_00000030457150821168902610000005115422059444750517_);}
	.st281{fill:#F7941D;}
	.st282{fill:#E1A74F;}
	.st283{fill:#C5C5BF;}
	.st284{fill:none;stroke:#000000;stroke-miterlimit:10;}
	.st285{fill:none;stroke:#E1A74F;stroke-width:0.5;stroke-miterlimit:10;}
	.st286{fill:none;stroke:url(#SVGID_00000048479217481230627790000012358823820486847151_);stroke-miterlimit:10;}
	.st287{fill:#D5872A;}
	.st288{fill:#BE1E2D;}
	.st289{fill:none;stroke:url(#SVGID_00000054951054852978109410000012831259633376487325_);stroke-miterlimit:10;}
	.st290{fill:url(#SVGID_00000159431831468271472900000002679773217813782172_);}
	.st291{fill:url(#SVGID_00000137094792864952009440000004343266528144927413_);}
	.st292{fill:url(#SVGID_00000170960094109467087590000017823025226327297172_);}
	.st293{fill:url(#SVGID_00000066507917547003335680000011168109932195272321_);}
	.st294{fill:url(#SVGID_00000016059684854837603660000016766020284690069392_);}
	.st295{fill:url(#SVGID_00000111889369694772360070000016336852952415006393_);}
	.st296{fill:url(#SVGID_00000103976036570348312130000013918879342515224762_);}
	.st297{fill:url(#SVGID_00000076573562341540766020000004659930804661112452_);}
	.st298{fill:url(#SVGID_00000136391738185553465500000000175905499934791062_);}
	.st299{fill:url(#SVGID_00000031176857272298855950000001555150440549975209_);}
	.st300{fill:url(#SVGID_00000057137063976875896820000011344219233802725821_);}
	.st301{fill:url(#SVGID_00000112595697884311952460000017866327942163184011_);}
	.st302{fill:url(#SVGID_00000144309845587380074740000008979127345057826482_);}
	.st303{fill:url(#SVGID_00000141444074993142635010000012700134097436070042_);}
	.st304{fill:url(#SVGID_00000008124089267338269880000003196571061009121465_);}
	.st305{fill:url(#SVGID_00000103244946069788329310000005119361002419853739_);}
	.st306{fill:url(#SVGID_00000141413354963025581560000009504657527907329722_);}
	.st307{fill:url(#SVGID_00000024719775736134670070000013310178488941042867_);}
	.st308{fill:url(#SVGID_00000030452369497976937340000017389589322972820352_);}
	.st309{fill:url(#SVGID_00000075138522841345005050000009067437680130923425_);}
	.st310{fill:url(#SVGID_00000106143684182768164760000011873244272003727278_);}
	.st311{fill:url(#SVGID_00000038375998952191647650000008798727830517931450_);}
	.st312{fill:url(#SVGID_00000153705411249885890390000001601203303067714230_);}
	.st313{fill:url(#SVGID_00000119090404811316533710000001439864050102450854_);}
	.st314{fill:url(#SVGID_00000098195141098752804680000011950265288029975197_);}
	.st315{fill:url(#SVGID_00000079454767362910298270000008634509290855994774_);}
	.st316{fill:url(#SVGID_00000072261275581292007440000010618914365374344622_);}
	.st317{fill:url(#SVGID_00000140720355944254100170000001167309651994719913_);}
	.st318{fill:url(#SVGID_00000132062991890639680430000004981952430329421492_);}
	.st319{fill:url(#SVGID_00000065761130959488522060000015868577846673439885_);}
	.st320{fill:url(#SVGID_00000026872442644147074630000001629616680507556543_);}
	.st321{fill:url(#SVGID_00000129174265911462598770000011437218983110704062_);}
	.st322{fill:url(#SVGID_00000168833538492876208790000005168571772408912813_);}
	.st323{fill:url(#SVGID_00000096016831227708005870000008811443228777570224_);}
	.st324{fill:url(#SVGID_00000119799886779783457210000007869216639535075488_);}
	.st325{fill:url(#SVGID_00000022528202197725484510000014608305436619485104_);}
	.st326{fill:url(#SVGID_00000104708529150317928950000012515597778940945833_);}
	.st327{fill:url(#SVGID_00000101081164495692020090000015529573771074760601_);}
	.st328{fill:url(#SVGID_00000042009278682847297860000010872256676198385847_);}
	.st329{fill:url(#SVGID_00000136405455435024766600000004188805512556202639_);}
	.st330{fill:url(#SVGID_00000135663723594312707890000007468543979672859011_);}
	.st331{fill:url(#SVGID_00000018209148151929007230000004431424545156187040_);}
	.st332{fill:url(#SVGID_00000168108084844615056420000005375009973947296645_);}
	.st333{fill:url(#SVGID_00000129170097248429849120000011781448530394866870_);}
	.st334{fill:url(#SVGID_00000171708999630730809210000016283962037414692792_);}
	.st335{fill:url(#SVGID_00000039854549495953185810000013789539400492157870_);}
	.st336{fill:url(#SVGID_00000018950387207236943810000008335938522583874179_);}
	.st337{fill:url(#SVGID_00000011737184531885047480000017375624293670885788_);}
	.st338{fill:url(#SVGID_00000023998094698577123530000017645691191022758579_);}
	.st339{fill:url(#SVGID_00000063627919143634696790000003747004041664621958_);}
	.st340{fill:url(#SVGID_00000141449594480330649200000001977763801411289223_);}
	.st341{fill:url(#SVGID_00000057133501773738465190000016207756342746478519_);}
	.st342{fill:url(#SVGID_00000053547653348613240500000007354916967866208391_);}
	.st343{fill:url(#SVGID_00000176009146951780921110000018107992098211819652_);}
	.st344{fill:url(#SVGID_00000176039403780267609400000013074238075869859750_);}
	.st345{fill:url(#SVGID_00000153690886002271947680000005516285784096651455_);}
	.st346{fill:url(#SVGID_00000020399863842111586570000004080405070251899787_);}
	.st347{fill:url(#SVGID_00000057106812954125462710000008426195169057009819_);}
	.st348{fill:url(#SVGID_00000085950828485610210880000000402767204491856831_);}
	.st349{fill:url(#SVGID_00000163794231246794787460000008833209490756215991_);}
	.st350{fill:#FFCB28;}
	.st351{fill:#C9CBCB;stroke:#FFFFFF;stroke-width:5;stroke-miterlimit:10;}
	.st352{fill:none;}
	.st353{fill:none;stroke:#000000;stroke-width:0.25;stroke-miterlimit:10;}
	.st354{fill:#0F2D3F;}
	.st355{fill:none;stroke:#FFFFFF;stroke-miterlimit:10;}
	.st356{fill:none;stroke:#FFFFFF;stroke-width:3;stroke-miterlimit:10;}
	.st357{fill:url(#SVGID_00000063635082540853828120000003687408381847287725_);}
	.st358{fill:#FFCC66;}
</style>
<g>
	<g>
		<path d="M110.79,249.37c0,9.59-7.78,17.37-17.37,17.37c-9.6,0-17.37-7.78-17.37-17.37c0-9.59,7.77-17.37,17.37-17.37
			C103.02,232,110.79,239.77,110.79,249.37z"/>
		<path d="M155.79,249.37c0,8.32-6.74,15.05-15.05,15.05c-8.31,0-15.05-6.74-15.05-15.05c0-8.31,6.74-15.05,15.05-15.05
			C149.05,234.32,155.79,241.05,155.79,249.37z"/>
		<path d="M201.95,249.37c0,7.68-6.22,13.9-13.89,13.9c-7.67,0-13.9-6.22-13.9-13.9c0-7.67,6.23-13.89,13.9-13.89
			C195.73,235.47,201.95,241.69,201.95,249.37z"/>
		<path d="M246.94,249.37c0,6.4-5.18,11.58-11.58,11.58c-6.4,0-11.58-5.18-11.58-11.58c0-6.39,5.18-11.58,11.58-11.58
			C241.76,237.79,246.94,242.97,246.94,249.37z"/>
		<path d="M123.17,207.92c0,8.32-6.74,15.05-15.05,15.05c-8.32,0-15.05-6.74-15.05-15.05c0-8.31,6.73-15.05,15.05-15.05
			C116.43,192.87,123.17,199.6,123.17,207.92z"/>
		<path d="M162.23,207.92c0,7.04-5.71,12.74-12.74,12.74c-7.04,0-12.74-5.7-12.74-12.74c0-7.03,5.7-12.74,12.74-12.74
			C156.53,195.18,162.23,200.88,162.23,207.92z"/>
		<path d="M195.5,207.92c0,5.76-4.67,10.42-10.42,10.42c-5.76,0-10.42-4.66-10.42-10.42c0-5.75,4.66-10.42,10.42-10.42
			C190.84,197.5,195.5,202.16,195.5,207.92z"/>
		<path d="M229.94,207.92c0,5.12-4.15,9.26-9.26,9.26c-5.12,0-9.26-4.15-9.26-9.26c0-5.12,4.15-9.26,9.26-9.26
			C225.79,198.66,229.94,202.8,229.94,207.92z"/>
		<path d="M140.6,166.76c0,7.04-5.7,12.74-12.74,12.74c-7.03,0-12.74-5.7-12.74-12.74c0-7.03,5.7-12.73,12.74-12.73
			C134.9,154.03,140.6,159.73,140.6,166.76z"/>
		<path d="M174.82,166.76c0,5.76-4.66,10.42-10.42,10.42c-5.76,0-10.42-4.67-10.42-10.42c0-5.75,4.66-10.42,10.42-10.42
			C170.15,156.34,174.82,161.01,174.82,166.76z"/>
		<path d="M209.03,166.76c0,4.48-3.63,8.11-8.11,8.11c-4.48,0-8.1-3.63-8.1-8.11c0-4.48,3.63-8.1,8.1-8.1
			C205.4,158.66,209.03,162.29,209.03,166.76z"/>
		<path d="M156.75,125.81c0,5.76-4.67,10.42-10.42,10.42c-5.76,0-10.42-4.66-10.42-10.42c0-5.75,4.66-10.42,10.42-10.42
			C152.09,115.39,156.75,120.05,156.75,125.81z"/>
		<path d="M189.4,125.81c0,3.84-3.11,6.95-6.95,6.95c-3.84,0-6.95-3.11-6.95-6.95c0-3.84,3.11-6.95,6.95-6.95
			C186.29,118.86,189.4,121.97,189.4,125.81z"/>
		<path d="M172.5,85.07c0,4.48-3.63,8.11-8.11,8.11c-4.48,0-8.11-3.63-8.11-8.11c0-4.48,3.63-8.1,8.11-8.1
			C168.87,76.96,172.5,80.59,172.5,85.07z"/>
	</g>
	<g>
		<path d="M48.55,297.21c1.28,0,2.03-0.74,2.03-1.7c0-1.21-0.97-1.7-2.47-2.74l-1.01-0.67c-1.95-1.31-2.87-2.92-2.87-4.99
			c0-2.74,1.91-4.82,4.84-4.82c1.11,0,2.35,0.32,3.75,0.89v4.1c-1.57-1.16-2.87-1.66-3.67-1.66c-1.01,0-1.61,0.54-1.61,1.41
			c0,0.59,0.33,1.14,1.03,1.58l1.74,1.14c2.16,1.41,3.69,2.69,3.69,5.49c0,3.29-2.03,5.71-5.41,5.71c-1.15,0-2.45-0.3-3.94-0.84
			l-0.29-4.67C45.87,296.51,47.13,297.21,48.55,297.21z"/>
		<path d="M57.23,282.88h9.14v3.61h-5.7v3.16h4.88v3.58h-4.88v3.46h5.79v3.68h-9.22V282.88z"/>
		<path d="M74.61,301.04l-7-18.16h3.75l3.5,9.56l3.52-9.56h3.48l-7,18.16H74.61z"/>
		<path d="M83.71,282.88h9.14v3.61h-5.7v3.16h4.88v3.58h-4.88v3.46h5.79v3.68h-9.22V282.88z"/>
		<path d="M96.28,282.31h0.33l9.24,10.2v-9.63h3.27v18.16h-0.31l-9.27-10.2v9.54h-3.27V282.31z"/>
		<path d="M123.41,297.21c1.28,0,2.03-0.74,2.03-1.7c0-1.21-0.96-1.7-2.47-2.74l-1.01-0.67c-1.95-1.31-2.87-2.92-2.87-4.99
			c0-2.74,1.91-4.82,4.84-4.82c1.11,0,2.35,0.32,3.75,0.89v4.1c-1.57-1.16-2.87-1.66-3.67-1.66c-1.01,0-1.61,0.54-1.61,1.41
			c0,0.59,0.33,1.14,1.03,1.58l1.74,1.14c2.16,1.41,3.69,2.69,3.69,5.49c0,3.29-2.03,5.71-5.41,5.71c-1.15,0-2.45-0.3-3.94-0.84
			l-0.29-4.67C120.73,296.51,121.99,297.21,123.41,297.21z"/>
		<path d="M135.44,292.49c0,3.09,0.96,4.62,2.91,4.62c1.84,0,2.89-1.41,2.89-4.2v-10.03h3.17v10.03c0,5.21-2.43,8.03-6.23,8.03
			c-3.84,0-6.25-2.79-6.25-8.01v-10.06h3.5V292.49z"/>
		<path d="M150.18,282.31h0.25l5.6,11.39l5.28-11.39h0.27l3.1,18.06h-3.38l-1.26-7.98l-3.98,8.62h-0.23l-4.28-8.75l-1.3,8.1h-3.17
			L150.18,282.31z"/>
		<path d="M169.36,282.31h0.25l5.6,11.39l5.28-11.39h0.27l3.1,18.06h-3.37l-1.26-7.98l-3.98,8.62h-0.23l-4.28-8.75l-1.3,8.1h-3.16
			L169.36,282.31z"/>
		<path d="M186.72,282.88h3.54v17.49h-3.54V282.88z"/>
		<path d="M197.39,286.53h-4.72v-3.66h12.96v3.66h-4.7v13.84h-3.54V286.53z"/>
		<path d="M217.7,286.53h-4.72v-3.66h12.96v3.66h-4.7v13.84h-3.54V286.53z"/>
		<path d="M228.29,282.88h3.81c1.89,0,3.36,0.15,4.63,1.23c1.11,0.94,1.74,2.4,1.74,3.9c0,2.2-0.97,3.9-2.77,4.84l4.53,7.51h-4.04
			l-3.96-6.87h-0.5v6.87h-3.44V282.88z M231.73,286.06v4.84h0.75c1.8,0,2.75-0.89,2.75-2.47c0-1.75-0.96-2.37-2.91-2.37H231.73z"/>
		<path d="M242.29,282.88h9.14v3.61h-5.7v3.16h4.88v3.58h-4.88v3.46h5.79v3.68h-9.22V282.88z"/>
		<path d="M254.87,282.88h3.5v7.61l4.9-7.61h4.22l-5.6,8.33l6.04,9.17h-4.28l-5.28-8.06v8.06h-3.5V282.88z"/>
		<path d="M273.32,297.21c1.28,0,2.03-0.74,2.03-1.7c0-1.21-0.96-1.7-2.47-2.74l-1.01-0.67c-1.95-1.31-2.87-2.92-2.87-4.99
			c0-2.74,1.91-4.82,4.84-4.82c1.11,0,2.35,0.32,3.75,0.89v4.1c-1.57-1.16-2.87-1.66-3.67-1.66c-1.01,0-1.61,0.54-1.61,1.41
			c0,0.59,0.34,1.14,1.03,1.58l1.74,1.14c2.16,1.41,3.69,2.69,3.69,5.49c0,3.29-2.03,5.71-5.41,5.71c-1.15,0-2.46-0.3-3.94-0.84
			l-0.29-4.67C270.63,296.51,271.89,297.21,273.32,297.21z"/>
	</g>
</g>
</svg>
