<?xml version="1.0" encoding="utf-8"?>
<!-- Generator: Adobe Illustrator 27.0.0, SVG Export Plug-In . SVG Version: 6.00 Build 0)  -->
<svg version="1.1" id="Layer_1" xmlns="http://www.w3.org/2000/svg" xmlns:xlink="http://www.w3.org/1999/xlink" x="0px" y="0px"
	 viewBox="0 0 323 378" style="enable-background:new 0 0 323 378;" xml:space="preserve">
<style type="text/css">
	.st0{filter:url(#Adobe_OpacityMaskFilter);}
	.st1{fill:url(#SVGID_00000142167567729150049820000012940987666539039136_);}
	.st2{opacity:0.61;mask:url(#SVGID_1_);}
	.st3{fill:url(#SVGID_00000026885285555902243260000000441545995126971796_);}
	.st4{fill:url(#SVGID_00000072258373154603141660000007613499698185679232_);}
	.st5{fill:url(#SVGID_00000168112665879611672050000012531377442944324004_);}
	.st6{fill:url(#SVGID_00000083070175051449379590000017529220927089179533_);}
	.st7{fill:url(#SVGID_00000123421250651741350570000007333145134435860104_);}
	.st8{fill:url(#SVGID_00000144300217739487392000000018157167935808071556_);}
	.st9{fill:url(#SVGID_00000141419755486992467010000010185430242566773134_);}
	.st10{fill:url(#SVGID_00000078738229879880664190000004893725402608970883_);}
	.st11{fill:url(#SVGID_00000088099737707022725460000009142063909018576535_);}
	.st12{fill:url(#SVGID_00000138533502146084626280000000471984281457375623_);}
	.st13{fill:url(#SVGID_00000044149542495814304730000014411992469139388848_);}
	.st14{fill:url(#SVGID_00000042002636410741256430000006949011298296011672_);}
	.st15{fill:url(#SVGID_00000160184781746745260560000015798997038833387142_);}
	.st16{fill:url(#SVGID_00000165931739996612008100000002341040531303540639_);}
	.st17{fill:url(#SVGID_00000005234256711778731720000016292428389816976823_);}
	.st18{fill:url(#SVGID_00000073710098431861768310000016854460508773859461_);}
	.st19{fill:#EA9323;}
	.st20{fill:url(#SVGID_00000088816749969762790510000000212154559775230107_);}
	.st21{fill:url(#SVGID_00000112634155716529895520000009686252416983390611_);}
	.st22{fill:url(#SVGID_00000179610007999813870680000015395796518214445994_);}
	.st23{fill:url(#SVGID_00000160153670709795100230000015504590408276627884_);}
	.st24{fill:url(#SVGID_00000139276676744563203370000014945841986339436978_);}
	.st25{fill:url(#SVGID_00000140696258708859166690000016786101784122327453_);}
	.st26{fill:url(#SVGID_00000051374059786143717910000014306401798669047742_);}
	.st27{fill:url(#SVGID_00000174593535587559648800000006033667949874843027_);}
	.st28{fill:url(#SVGID_00000148656985449605014080000006615231486199248264_);}
	.st29{fill:url(#SVGID_00000056387054206205689650000013217766281301334716_);}
	.st30{fill:url(#SVGID_00000062898577499457543660000014609380435287366550_);}
	.st31{fill:url(#SVGID_00000005949265895841668500000014559533474681318552_);}
	.st32{fill:url(#SVGID_00000129903564422535169370000012112039375531105699_);}
	.st33{fill:url(#SVGID_00000108999484798788452250000012823079540568710315_);}
	.st34{fill:url(#SVGID_00000173879262789565580360000000335939127597003154_);}
	.st35{filter:url(#Adobe_OpacityMaskFilter_00000137834487340447637560000004225504201080026774_);}
	.st36{opacity:0.2;mask:url(#SVGID_00000003099650519938521200000005361843411610486457_);}
	.st37{fill:#FFFFFF;}
	.st38{fill:url(#SVGID_00000064349875007167256420000002286321437578055077_);}
	.st39{filter:url(#Adobe_OpacityMaskFilter_00000040542993502584038250000018271995718675136658_);}
	.st40{opacity:0.2;mask:url(#SVGID_00000061454565261547681210000016087878449681910203_);}
	.st41{fill:url(#SVGID_00000042012197172757924260000017695264595504784554_);}
	.st42{filter:url(#Adobe_OpacityMaskFilter_00000114075814682177282510000017584302875138072482_);}
	.st43{opacity:0.2;mask:url(#SVGID_00000097499096539802462980000003050408105307938450_);}
	.st44{fill:url(#SVGID_00000029035433838533117530000002333417218048370309_);}
	.st45{filter:url(#Adobe_OpacityMaskFilter_00000017516791436945092890000013669187449708354178_);}
	.st46{opacity:0.2;mask:url(#SVGID_00000029765226029820724660000017186785335388244132_);}
	.st47{fill:url(#SVGID_00000118389809866627104540000002612971732550760835_);}
	.st48{filter:url(#Adobe_OpacityMaskFilter_00000182501795054307190890000007910840630620461727_);}
	.st49{opacity:0.2;mask:url(#SVGID_00000021104554255973392800000009814480184214513070_);}
	.st50{fill:url(#SVGID_00000083767507160089725940000009093218124147005582_);}
	.st51{filter:url(#Adobe_OpacityMaskFilter_00000065755240817853485010000005293719710756327813_);}
	.st52{opacity:0.2;mask:url(#SVGID_00000023273770966389334090000014239423220291452345_);}
	.st53{fill:url(#SVGID_00000048488673568585239530000012839955796858518940_);}
	.st54{filter:url(#Adobe_OpacityMaskFilter_00000047759757630723898860000017559338555711749770_);}
	.st55{opacity:0.2;mask:url(#SVGID_00000069391538207139909910000009177371400215705997_);}
	.st56{fill:url(#SVGID_00000031184792856885132120000009475608748162479547_);}
	.st57{filter:url(#Adobe_OpacityMaskFilter_00000066498370598518827530000003223965023293775513_);}
	.st58{opacity:0.2;mask:url(#SVGID_00000108294259429568256270000003777822379234364839_);}
	.st59{fill:url(#SVGID_00000039132019069810893560000018220502633589571980_);}
	.st60{filter:url(#Adobe_OpacityMaskFilter_00000135671269936383203030000013036597526526207627_);}
	.st61{opacity:0.2;mask:url(#SVGID_00000143612623854908473430000000479436492804362922_);}
	.st62{fill:url(#SVGID_00000031922280759866303480000007108562758425679257_);}
	.st63{filter:url(#Adobe_OpacityMaskFilter_00000097492658225392405550000002447258641993610118_);}
	.st64{opacity:0.2;mask:url(#SVGID_00000024690966698532225460000008807768877752723116_);}
	.st65{fill:url(#SVGID_00000098941474197571838890000012194095461651871160_);}
	.st66{filter:url(#Adobe_OpacityMaskFilter_00000002349499148295773540000013365464749437155975_);}
	.st67{opacity:0.2;mask:url(#SVGID_00000059287114555501736560000009412207926339495351_);}
	.st68{fill:url(#SVGID_00000129174294132799229730000015799058591441684366_);}
	.st69{filter:url(#Adobe_OpacityMaskFilter_00000165918896664074105710000006744698931379405714_);}
	.st70{opacity:0.2;mask:url(#SVGID_00000183231136563958996870000011125383004500972443_);}
	.st71{fill:url(#SVGID_00000068667205669070487960000004686528896212861830_);}
	.st72{filter:url(#Adobe_OpacityMaskFilter_00000076587527056257431540000011568675301793460149_);}
	.st73{opacity:0.2;mask:url(#SVGID_00000147904461307825735080000001288933635476181148_);}
	.st74{fill:url(#SVGID_00000003826440883763641820000016454723470443893942_);}
	.st75{filter:url(#Adobe_OpacityMaskFilter_00000037652303223423659890000003483666445384868000_);}
	.st76{opacity:0.2;mask:url(#SVGID_00000036969689012318329960000000224679531353654704_);}
	.st77{opacity:0;fill:#939598;}
	.st78{opacity:0.0435;fill:#939598;}
	.st79{opacity:0.087;fill:#939598;}
	.st80{opacity:0.1304;fill:#939598;}
	.st81{opacity:0.1739;fill:#939598;}
	.st82{opacity:0.2174;fill:#939598;}
	.st83{opacity:0.2609;fill:#939598;}
	.st84{opacity:0.3043;fill:#939598;}
	.st85{opacity:0.3478;fill:#939598;}
	.st86{opacity:0.3913;fill:#939598;}
	.st87{opacity:0.4348;fill:#939598;}
	.st88{opacity:0.4783;fill:#939598;}
	.st89{opacity:0.5217;fill:#939598;}
	.st90{opacity:0.5652;fill:#939598;}
	.st91{opacity:0.6087;fill:#939598;}
	.st92{opacity:0.6522;fill:#939598;}
	.st93{opacity:0.6957;fill:#939598;}
	.st94{opacity:0.7391;fill:#939598;}
	.st95{opacity:0.7826;fill:#939598;}
	.st96{opacity:0.8261;fill:#939598;}
	.st97{opacity:0.8696;fill:#939598;}
	.st98{opacity:0.913;fill:#939598;}
	.st99{opacity:0.9565;fill:#939598;}
	.st100{fill:#939598;}
	.st101{enable-background:new    ;}
	.st102{clip-path:url(#SVGID_00000005235083963116875620000004824698301170838194_);enable-background:new    ;}
	.st103{fill:#9E6410;}
	.st104{fill:#9A610E;}
	.st105{fill:#965F0D;}
	.st106{fill:#935C0B;}
	.st107{fill:#8F5A09;}
	.st108{fill:#8B5707;}
	.st109{fill:#D0831E;}
	.st110{opacity:0;fill:#FFFFFF;}
	.st111{opacity:0.0435;fill:#FFFFFF;}
	.st112{opacity:0.087;fill:#FFFFFF;}
	.st113{opacity:0.1304;fill:#FFFFFF;}
	.st114{opacity:0.1739;fill:#FFFFFF;}
	.st115{opacity:0.2174;fill:#FFFFFF;}
	.st116{opacity:0.2609;fill:#FFFFFF;}
	.st117{opacity:0.3043;fill:#FFFFFF;}
	.st118{opacity:0.3478;fill:#FFFFFF;}
	.st119{opacity:0.3913;fill:#FFFFFF;}
	.st120{opacity:0.4348;fill:#FFFFFF;}
	.st121{opacity:0.4783;fill:#FFFFFF;}
	.st122{opacity:0.5217;fill:#FFFFFF;}
	.st123{opacity:0.5652;fill:#FFFFFF;}
	.st124{opacity:0.6087;fill:#FFFFFF;}
	.st125{opacity:0.6522;fill:#FFFFFF;}
	.st126{opacity:0.6957;fill:#FFFFFF;}
	.st127{opacity:0.7391;fill:#FFFFFF;}
	.st128{opacity:0.7826;fill:#FFFFFF;}
	.st129{opacity:0.8261;fill:#FFFFFF;}
	.st130{opacity:0.8696;fill:#FFFFFF;}
	.st131{opacity:0.913;fill:#FFFFFF;}
	.st132{opacity:0.9565;fill:#FFFFFF;}
	.st133{clip-path:url(#SVGID_00000009579755775616795920000005924864379985237401_);enable-background:new    ;}
	.st134{fill:#A16615;}
	.st135{fill:#9D6314;}
	.st136{fill:#996113;}
	.st137{fill:#965E11;}
	.st138{fill:#925C0F;}
	.st139{fill:#8E590D;}
	.st140{fill:#D48624;}
	.st141{clip-path:url(#SVGID_00000021118284191340341160000000569409478499549849_);enable-background:new    ;}
	.st142{fill:#A6750A;}
	.st143{fill:#A27208;}
	.st144{fill:#9E6F07;}
	.st145{fill:#9A6C05;}
	.st146{fill:#976A04;}
	.st147{fill:#936702;}
	.st148{fill:#DB9917;}
	.st149{opacity:0;fill:#F7F5F0;}
	.st150{opacity:0.0435;fill:#F7F5F0;}
	.st151{opacity:0.087;fill:#F7F5F0;}
	.st152{opacity:0.1304;fill:#F7F5F0;}
	.st153{opacity:0.1739;fill:#F7F5F0;}
	.st154{opacity:0.2174;fill:#F7F5F0;}
	.st155{opacity:0.2609;fill:#F7F5F0;}
	.st156{opacity:0.3043;fill:#F7F5F0;}
	.st157{opacity:0.3478;fill:#F7F5F0;}
	.st158{opacity:0.3913;fill:#F7F5F0;}
	.st159{opacity:0.4348;fill:#F7F5F0;}
	.st160{opacity:0.4783;fill:#F7F5F0;}
	.st161{opacity:0.5217;fill:#F7F5F0;}
	.st162{opacity:0.5652;fill:#F7F5F0;}
	.st163{opacity:0.6087;fill:#F7F5F0;}
	.st164{opacity:0.6522;fill:#F7F5F0;}
	.st165{opacity:0.6957;fill:#F7F5F0;}
	.st166{opacity:0.7391;fill:#F7F5F0;}
	.st167{opacity:0.7826;fill:#F7F5F0;}
	.st168{opacity:0.8261;fill:#F7F5F0;}
	.st169{opacity:0.8696;fill:#F7F5F0;}
	.st170{opacity:0.913;fill:#F7F5F0;}
	.st171{opacity:0.9565;fill:#F7F5F0;}
	.st172{fill:#F7F5F0;}
	.st173{opacity:0.6;clip-path:url(#SVGID_00000167380688406701782800000011023474311015252145_);enable-background:new    ;}
	.st174{opacity:0.6;fill:#DB9917;}
	.st175{opacity:0.6;}
	.st176{opacity:0.6;clip-path:url(#SVGID_00000049180452721388539720000011219004128042523322_);enable-background:new    ;}
	.st177{clip-path:url(#SVGID_00000122695526862362961950000000295642887611803563_);enable-background:new    ;}
	.st178{clip-path:url(#SVGID_00000011718517583991568200000014394704534469637820_);enable-background:new    ;}
	.st179{clip-path:url(#SVGID_00000109723551576368776060000009339349685114173862_);enable-background:new    ;}
	.st180{clip-path:url(#SVGID_00000160182112464635630720000008563029916945527485_);enable-background:new    ;}
	.st181{opacity:0.8;clip-path:url(#SVGID_00000001640704886231915860000017636753620089188795_);enable-background:new    ;}
	.st182{opacity:0.8;fill:#DB9917;}
	.st183{opacity:0.8;}
	.st184{opacity:0.8;clip-path:url(#SVGID_00000174590453936518666100000011929568893844742793_);enable-background:new    ;}
	.st185{opacity:0.6;clip-path:url(#SVGID_00000146473274345046493930000016035838989794940063_);enable-background:new    ;}
	.st186{opacity:0.6;clip-path:url(#SVGID_00000034793092733252268330000000551988487180101812_);enable-background:new    ;}
	.st187{clip-path:url(#SVGID_00000169540071588477221650000001298784107295630496_);enable-background:new    ;}
	.st188{clip-path:url(#SVGID_00000156550465319994345750000004233656890484916610_);enable-background:new    ;}
	.st189{opacity:0.8;clip-path:url(#SVGID_00000176008504619579522870000001882542873404982156_);enable-background:new    ;}
	.st190{opacity:0.8;clip-path:url(#SVGID_00000010297999110353239540000001329331091608454799_);enable-background:new    ;}
	.st191{opacity:0.6;clip-path:url(#SVGID_00000034782940036795843590000003381067312017122235_);enable-background:new    ;}
	.st192{opacity:0.6;clip-path:url(#SVGID_00000114033322939525888490000013357833354134482841_);enable-background:new    ;}
	.st193{opacity:0.8;clip-path:url(#SVGID_00000135655981024621866760000002271048595922108591_);enable-background:new    ;}
	.st194{opacity:0.8;clip-path:url(#SVGID_00000181060978019996633990000009718477629516445092_);enable-background:new    ;}
	.st195{opacity:0.6;clip-path:url(#SVGID_00000114075131537613492910000013114761578156958611_);enable-background:new    ;}
	.st196{fill:none;stroke:#FFFFFF;stroke-width:0.25;stroke-miterlimit:10;}
	.st197{opacity:0.6;clip-path:url(#SVGID_00000113334998319214203890000011131298165569343373_);enable-background:new    ;}
	.st198{opacity:0.6;clip-path:url(#SVGID_00000092426083383785171820000005862688018927966644_);enable-background:new    ;}
	.st199{opacity:0.6;clip-path:url(#SVGID_00000183230902560398086260000007201515265602085531_);enable-background:new    ;}
	.st200{fill:url(#SVGID_00000170271175432000689020000005321503431213765007_);}
	.st201{fill:url(#SVGID_00000092445958140048291630000016217528267085823153_);}
	.st202{fill:url(#SVGID_00000129193606189166608440000001514545744969193389_);}
	.st203{fill:url(#SVGID_00000168116153537054767100000007043689375385434034_);}
	.st204{fill:url(#SVGID_00000062172797206809597220000001695564990796640182_);}
	.st205{fill:url(#SVGID_00000112620551224570302360000012365404369997385630_);}
	.st206{fill:url(#SVGID_00000178185525923776425390000003801817161017644428_);}
	.st207{fill:url(#SVGID_00000070093490560787419930000016029357460080203136_);}
	.st208{fill:url(#SVGID_00000063622572397454584510000011999375638271913871_);}
	.st209{fill:url(#SVGID_00000062893782714088071160000004511869444976533674_);}
	.st210{fill:url(#SVGID_00000065059940463083218930000011359933870193874577_);}
	.st211{fill:url(#SVGID_00000052068966516240732910000004005304114397919401_);}
	.st212{fill:url(#SVGID_00000165919668137412058730000016735239172553056699_);}
	.st213{fill:url(#SVGID_00000005974494429783111880000011910009304619645070_);}
	.st214{fill:url(#SVGID_00000151512818889792242620000015818588415291944101_);}
	.st215{fill:url(#SVGID_00000099624516420441057320000007638124698901930921_);}
	.st216{fill:url(#SVGID_00000160163599982938340630000007666046420941740946_);}
	.st217{fill:url(#SVGID_00000170252582836625401390000010008758773102126763_);}
	.st218{fill:url(#SVGID_00000182491576146961625190000011950215440296657074_);}
	.st219{fill:url(#SVGID_00000010303197326787427590000003439933076689185941_);}
	.st220{fill:url(#SVGID_00000138535912991572953790000005702407827351065485_);}
	.st221{fill:url(#SVGID_00000039115684354307204250000007638818821987629207_);}
	.st222{fill:url(#SVGID_00000075134016178348538290000008406377045270063796_);}
	.st223{fill:url(#SVGID_00000059267573161870072840000014210480021020979356_);}
	.st224{fill:url(#SVGID_00000182491789668967186410000008447780572204058013_);}
	.st225{fill:url(#SVGID_00000080888042972405434150000017228005100108984241_);}
	.st226{fill:url(#SVGID_00000089534491666518892310000011218543795109204882_);}
	.st227{fill:url(#SVGID_00000024712095977242177050000012806394854601255330_);}
	.st228{fill:url(#SVGID_00000140008537015492682630000015470675408555559354_);}
	.st229{fill:url(#SVGID_00000007407253107710603750000016056768287665821571_);}
	.st230{fill:url(#SVGID_00000165953672676648210320000017762764409360062632_);}
	.st231{fill:url(#SVGID_00000054257428937119520020000008670337437183543713_);}
	.st232{fill:url(#SVGID_00000098187304090026917650000003870837548763314623_);}
	.st233{fill:#FBB040;}
	.st234{fill:#F1F2F2;}
	.st235{fill:url(#SVGID_00000127004020639741903140000007415755974925400252_);}
	.st236{fill:url(#SVGID_00000000204911065101052240000011699187711557627809_);}
	.st237{fill:url(#SVGID_00000151523871656146730180000006347587480195959726_);}
	.st238{fill:url(#SVGID_00000174577669641604607710000018238126916180950931_);}
	.st239{fill:url(#SVGID_00000119091929852803551870000014214657643735506610_);}
	.st240{fill:url(#SVGID_00000075842984021106914620000015990395311289452209_);}
	.st241{fill:url(#SVGID_00000129888801568819528740000015720668728442500028_);}
	.st242{fill:url(#SVGID_00000131364096534744761530000005876974390229559990_);}
	.st243{fill:url(#SVGID_00000033369567645813161370000010253423458498923653_);}
	.st244{fill:url(#SVGID_00000147206660701279588650000014041456061306476475_);}
	.st245{fill:url(#SVGID_00000005224626123439506590000005950542189522162108_);}
	.st246{fill:url(#SVGID_00000031197117211470859120000004276887241667881402_);}
	.st247{fill:url(#SVGID_00000098179311087698425620000000760268525588530069_);}
	.st248{fill:url(#SVGID_00000008855313154841027250000013313246153776135318_);}
	.st249{fill:url(#SVGID_00000125563930868769550780000001152157119324367537_);}
	.st250{fill:url(#SVGID_00000015320626345298435710000001346673476048049809_);}
	.st251{fill:url(#SVGID_00000093178168535068647260000000251033762412783803_);}
	.st252{fill:url(#SVGID_00000173133756060735131350000017399505218912561072_);}
	.st253{fill:url(#SVGID_00000094577308066652595060000015058599080550248098_);}
	.st254{fill:url(#SVGID_00000081628666175001725670000002045079770497288852_);}
	.st255{fill:url(#SVGID_00000080910356752384773820000011098718997391677102_);}
	.st256{fill:url(#SVGID_00000062871299203345226250000013237624764976807071_);}
	.st257{fill:url(#SVGID_00000153663910775935537990000003743420567808847278_);}
	.st258{fill:url(#SVGID_00000140733151638395508270000006631125271095788466_);}
	.st259{fill:url(#SVGID_00000036932279976162529180000014277318574376560517_);}
	.st260{fill:url(#SVGID_00000088838356144165730790000012777695029221626550_);}
	.st261{fill:url(#SVGID_00000161628331621555437270000015380692564620635050_);}
	.st262{fill:url(#SVGID_00000044137563513414925260000004971246656376651935_);}
	.st263{fill:url(#SVGID_00000005252468155827741930000000730845183461040052_);}
	.st264{fill:url(#SVGID_00000152980503072908449690000014581822576983785616_);}
	.st265{fill:url(#SVGID_00000183231999320518020970000013485974128598409652_);}
	.st266{fill:url(#SVGID_00000022521816869245259390000013456118516687536520_);}
	.st267{fill:url(#SVGID_00000003803234026191483430000018187393477203069336_);}
	.st268{fill:url(#SVGID_00000127737829706030622600000003139656036299295377_);}
	.st269{fill:url(#SVGID_00000172434787437840223330000005793100693926563715_);}
	.st270{fill:url(#SVGID_00000071547155874263748870000008608845185013429380_);}
	.st271{fill:url(#SVGID_00000155136585233771105270000005591430480318969745_);}
	.st272{fill:url(#SVGID_00000108303635343918162570000007450949906969487274_);}
	.st273{fill:url(#SVGID_00000114034464490121906230000002848609525217288081_);}
	.st274{fill:url(#SVGID_00000102522971779199648070000008832582786965274811_);}
	.st275{fill:url(#SVGID_00000096761357123710736280000006330578788675254456_);}
	.st276{fill:url(#SVGID_00000155840954009417687670000001456131648997365906_);}
	.st277{fill:url(#SVGID_00000029046542206254206280000017108443504117811618_);}
	.st278{fill:url(#SVGID_00000035499693158752303300000001819043879466810001_);}
	.st279{fill:url(#SVGID_00000122704043331941751940000003699350370638499514_);}
	.st280{fill:url(#SVGID_00000093175345150050968380000011526005966680590471_);}
	.st281{fill:#F7941D;}
	.st282{fill:#E1A74F;}
	.st283{fill:#C5C5BF;}
	.st284{fill:none;stroke:#000000;stroke-miterlimit:10;}
	.st285{fill:none;stroke:#E1A74F;stroke-width:0.5;stroke-miterlimit:10;}
	.st286{fill:none;stroke:url(#SVGID_00000071546714002963459380000000089012732977720975_);stroke-miterlimit:10;}
	.st287{fill:#D5872A;}
	.st288{fill:#BE1E2D;}
	.st289{fill:none;stroke:url(#SVGID_00000157266844667957566200000016031091426244373161_);stroke-miterlimit:10;}
	.st290{fill:url(#SVGID_00000044874055410257436480000009960951544873478333_);}
	.st291{fill:url(#SVGID_00000061431439276581702490000011946349005121738381_);}
	.st292{fill:url(#SVGID_00000079450820451984212300000006722527468891797428_);}
	.st293{fill:url(#SVGID_00000027596178129169556150000007274350256156599741_);}
	.st294{fill:url(#SVGID_00000152956105050746083360000009882294526961274764_);}
	.st295{fill:url(#SVGID_00000092452739016221162930000003723700009995481004_);}
	.st296{fill:url(#SVGID_00000130634550825641893420000003223539949424475776_);}
	.st297{fill:url(#SVGID_00000163791906797963640420000009574862078416235426_);}
	.st298{fill:url(#SVGID_00000172439830038415402940000013439949497893491337_);}
	.st299{fill:url(#SVGID_00000166644569388020891730000013422725915389864335_);}
	.st300{fill:url(#SVGID_00000002350410326438725740000017723372449439413911_);}
	.st301{fill:url(#SVGID_00000157280011393874565550000007397795329850872722_);}
	.st302{fill:url(#SVGID_00000163787062190253613670000010867564524826354610_);}
	.st303{fill:url(#SVGID_00000159465271937975550210000007606809325821226627_);}
	.st304{fill:url(#SVGID_00000109735249508297775050000011324589615313633178_);}
	.st305{fill:url(#SVGID_00000044156657834281092830000011901596290639478710_);}
	.st306{fill:url(#SVGID_00000124866213931125820070000015358208286384196001_);}
	.st307{fill:url(#SVGID_00000173881124869843389310000000177905828651870891_);}
	.st308{fill:url(#SVGID_00000096780893254355957740000014510794246452311210_);}
	.st309{fill:url(#SVGID_00000178897649495916896500000017584079987622674834_);}
	.st310{fill:url(#SVGID_00000010298179441852578380000015166791744256781969_);}
	.st311{fill:url(#SVGID_00000137827087552353007430000004299963740267130533_);}
	.st312{fill:url(#SVGID_00000165951190911976965980000007767056556147674511_);}
	.st313{fill:url(#SVGID_00000147909690434712943470000013293617399833265849_);}
	.st314{fill:url(#SVGID_00000078745070878280929830000015141426817851776654_);}
	.st315{fill:url(#SVGID_00000017481981206929775930000017428384712382212243_);}
	.st316{fill:url(#SVGID_00000147217512604964505630000011259226728375389350_);}
	.st317{fill:url(#SVGID_00000034086132947055618160000002501035680646654614_);}
	.st318{fill:url(#SVGID_00000111901275533178540400000018101689189880146092_);}
	.st319{fill:url(#SVGID_00000174601358795002126310000002731745255970334859_);}
	.st320{fill:url(#SVGID_00000131333432106524096300000000974033720254738343_);}
	.st321{fill:url(#SVGID_00000128444831374164022720000000907838247740017084_);}
	.st322{fill:url(#SVGID_00000019647231752932564740000017920460742713300153_);}
	.st323{fill:url(#SVGID_00000023965551133333353660000004194295477900169901_);}
	.st324{fill:url(#SVGID_00000165944433965206693640000005295316856326089120_);}
	.st325{fill:url(#SVGID_00000129201529841695218510000017007895453853488778_);}
	.st326{fill:url(#SVGID_00000086665119842132441580000009339117967580167583_);}
	.st327{fill:url(#SVGID_00000073719241937869385180000008470818209375702152_);}
	.st328{fill:url(#SVGID_00000101103772431936629640000004332398486547259826_);}
	.st329{fill:url(#SVGID_00000145749576138873776690000008633056513147902606_);}
	.st330{fill:url(#SVGID_00000167384864032647514320000005504432554486972321_);}
	.st331{fill:url(#SVGID_00000058558466560818414750000000847871470608285846_);}
	.st332{fill:url(#SVGID_00000162339391263853318590000016591512570735550362_);}
	.st333{fill:url(#SVGID_00000168102197926103027500000008766413512732043169_);}
	.st334{fill:url(#SVGID_00000176014627051769395810000013882990704918396323_);}
	.st335{fill:url(#SVGID_00000130620124625268274120000004937766565347162242_);}
	.st336{fill:url(#SVGID_00000137126919006703080430000003816455431973587622_);}
	.st337{fill:url(#SVGID_00000093146151172056899700000005230509852957871495_);}
	.st338{fill:url(#SVGID_00000062876094731529127100000002123681747129709954_);}
	.st339{fill:url(#SVGID_00000049933996901973553410000006240044801399241367_);}
	.st340{fill:url(#SVGID_00000039100700199494792450000017047719655002536376_);}
	.st341{fill:url(#SVGID_00000156554262779786007740000004961017609597226411_);}
	.st342{fill:url(#SVGID_00000090999260324508358820000005942359275964114053_);}
	.st343{fill:url(#SVGID_00000062907880407313045800000017715401002758748576_);}
	.st344{fill:url(#SVGID_00000129192895567210154230000006415438170609087132_);}
	.st345{fill:url(#SVGID_00000014620460924796346350000001639510989639347864_);}
	.st346{fill:url(#SVGID_00000026150688984265684100000006508046310880442808_);}
	.st347{fill:url(#SVGID_00000178199324569160566060000009327279558559739528_);}
	.st348{fill:url(#SVGID_00000034772588900947882980000018181993245082600372_);}
	.st349{fill:url(#SVGID_00000130646979596484767510000011965863275605961135_);}
	.st350{fill:#FFCB28;}
	.st351{fill:#C9CBCB;stroke:#FFFFFF;stroke-width:5;stroke-miterlimit:10;}
	.st352{fill:none;}
	.st353{fill:none;stroke:#000000;stroke-width:0.25;stroke-miterlimit:10;}
	.st354{fill:#0F2D3F;}
	.st355{fill:none;stroke:#FFFFFF;stroke-miterlimit:10;}
	.st356{fill:none;stroke:#FFFFFF;stroke-width:3;stroke-miterlimit:10;}
	.st357{fill:url(#SVGID_00000000903848406341162770000000057063748832553372_);}
	.st358{fill:#FFCC66;}
</style>
<rect y="-7.65" width="323" height="392.47"/>
<g>
	<g>
		<path class="st37" d="M110.79,249.37c0,9.59-7.78,17.37-17.37,17.37c-9.6,0-17.37-7.78-17.37-17.37c0-9.59,7.77-17.37,17.37-17.37
			C103.02,232,110.79,239.77,110.79,249.37z"/>
		<path class="st37" d="M155.79,249.37c0,8.32-6.74,15.05-15.05,15.05c-8.31,0-15.05-6.74-15.05-15.05
			c0-8.31,6.74-15.05,15.05-15.05C149.05,234.32,155.79,241.05,155.79,249.37z"/>
		<path class="st37" d="M201.95,249.37c0,7.68-6.22,13.9-13.89,13.9c-7.67,0-13.9-6.22-13.9-13.9c0-7.67,6.23-13.89,13.9-13.89
			C195.73,235.47,201.95,241.69,201.95,249.37z"/>
		<path class="st37" d="M246.94,249.37c0,6.4-5.18,11.58-11.58,11.58c-6.4,0-11.58-5.18-11.58-11.58c0-6.39,5.18-11.58,11.58-11.58
			C241.76,237.79,246.94,242.97,246.94,249.37z"/>
		<path class="st37" d="M123.17,207.92c0,8.32-6.74,15.05-15.05,15.05c-8.32,0-15.05-6.74-15.05-15.05
			c0-8.31,6.73-15.05,15.05-15.05C116.43,192.87,123.17,199.6,123.17,207.92z"/>
		<path class="st37" d="M162.23,207.92c0,7.04-5.71,12.74-12.74,12.74c-7.04,0-12.74-5.7-12.74-12.74c0-7.03,5.7-12.74,12.74-12.74
			C156.53,195.18,162.23,200.88,162.23,207.92z"/>
		<path class="st37" d="M195.5,207.92c0,5.76-4.67,10.42-10.42,10.42c-5.76,0-10.42-4.66-10.42-10.42c0-5.75,4.66-10.42,10.42-10.42
			C190.84,197.5,195.5,202.16,195.5,207.92z"/>
		<path class="st37" d="M229.94,207.92c0,5.12-4.15,9.26-9.26,9.26c-5.12,0-9.26-4.15-9.26-9.26c0-5.12,4.15-9.26,9.26-9.26
			C225.79,198.66,229.94,202.8,229.94,207.92z"/>
		<path class="st37" d="M140.6,166.76c0,7.04-5.7,12.74-12.74,12.74c-7.03,0-12.74-5.7-12.74-12.74c0-7.03,5.7-12.73,12.74-12.73
			C134.9,154.03,140.6,159.73,140.6,166.76z"/>
		<path class="st37" d="M174.82,166.76c0,5.76-4.66,10.42-10.42,10.42c-5.76,0-10.42-4.67-10.42-10.42
			c0-5.75,4.66-10.42,10.42-10.42C170.15,156.34,174.82,161.01,174.82,166.76z"/>
		<path class="st37" d="M209.03,166.76c0,4.48-3.63,8.11-8.11,8.11c-4.48,0-8.1-3.63-8.1-8.11c0-4.48,3.63-8.1,8.1-8.1
			C205.4,158.66,209.03,162.29,209.03,166.76z"/>
		<path class="st37" d="M156.75,125.81c0,5.76-4.67,10.42-10.42,10.42c-5.76,0-10.42-4.66-10.42-10.42
			c0-5.75,4.66-10.42,10.42-10.42C152.09,115.39,156.75,120.05,156.75,125.81z"/>
		<path class="st37" d="M189.4,125.81c0,3.84-3.11,6.95-6.95,6.95c-3.84,0-6.95-3.11-6.95-6.95c0-3.84,3.11-6.95,6.95-6.95
			C186.29,118.86,189.4,121.97,189.4,125.81z"/>
		<path class="st37" d="M172.5,85.07c0,4.48-3.63,8.11-8.11,8.11c-4.48,0-8.11-3.63-8.11-8.11c0-4.48,3.63-8.1,8.11-8.1
			C168.87,76.96,172.5,80.59,172.5,85.07z"/>
	</g>
	<g>
		<path class="st37" d="M48.55,297.21c1.28,0,2.03-0.74,2.03-1.7c0-1.21-0.97-1.7-2.47-2.74l-1.01-0.67
			c-1.95-1.31-2.87-2.92-2.87-4.99c0-2.74,1.91-4.82,4.84-4.82c1.11,0,2.35,0.32,3.75,0.89v4.1c-1.57-1.16-2.87-1.66-3.67-1.66
			c-1.01,0-1.61,0.54-1.61,1.41c0,0.59,0.33,1.14,1.03,1.58l1.74,1.14c2.16,1.41,3.69,2.69,3.69,5.49c0,3.29-2.03,5.71-5.41,5.71
			c-1.15,0-2.45-0.3-3.94-0.84l-0.29-4.67C45.87,296.51,47.13,297.21,48.55,297.21z"/>
		<path class="st37" d="M57.23,282.88h9.14v3.61h-5.7v3.16h4.88v3.58h-4.88v3.46h5.79v3.68h-9.22V282.88z"/>
		<path class="st37" d="M74.61,301.04l-7-18.16h3.75l3.5,9.56l3.52-9.56h3.48l-7,18.16H74.61z"/>
		<path class="st37" d="M83.71,282.88h9.14v3.61h-5.7v3.16h4.88v3.58h-4.88v3.46h5.79v3.68h-9.22V282.88z"/>
		<path class="st37" d="M96.28,282.31h0.33l9.24,10.2v-9.63h3.27v18.16h-0.31l-9.27-10.2v9.54h-3.27V282.31z"/>
		<path class="st37" d="M123.41,297.21c1.28,0,2.03-0.74,2.03-1.7c0-1.21-0.96-1.7-2.47-2.74l-1.01-0.67
			c-1.95-1.31-2.87-2.92-2.87-4.99c0-2.74,1.91-4.82,4.84-4.82c1.11,0,2.35,0.32,3.75,0.89v4.1c-1.57-1.16-2.87-1.66-3.67-1.66
			c-1.01,0-1.61,0.54-1.61,1.41c0,0.59,0.33,1.14,1.03,1.58l1.74,1.14c2.16,1.41,3.69,2.69,3.69,5.49c0,3.29-2.03,5.71-5.41,5.71
			c-1.15,0-2.45-0.3-3.94-0.84l-0.29-4.67C120.73,296.51,121.99,297.21,123.41,297.21z"/>
		<path class="st37" d="M135.44,292.49c0,3.09,0.96,4.62,2.91,4.62c1.84,0,2.89-1.41,2.89-4.2v-10.03h3.17v10.03
			c0,5.21-2.43,8.03-6.23,8.03c-3.84,0-6.25-2.79-6.25-8.01v-10.06h3.5V292.49z"/>
		<path class="st37" d="M150.18,282.31h0.25l5.6,11.39l5.28-11.39h0.27l3.1,18.06h-3.38l-1.26-7.98l-3.98,8.62h-0.23l-4.28-8.75
			l-1.3,8.1h-3.17L150.18,282.31z"/>
		<path class="st37" d="M169.36,282.31h0.25l5.6,11.39l5.28-11.39h0.27l3.1,18.06h-3.37l-1.26-7.98l-3.98,8.62h-0.23l-4.28-8.75
			l-1.3,8.1h-3.16L169.36,282.31z"/>
		<path class="st37" d="M186.72,282.88h3.54v17.49h-3.54V282.88z"/>
		<path class="st37" d="M197.39,286.53h-4.72v-3.66h12.96v3.66h-4.7v13.84h-3.54V286.53z"/>
		<path class="st37" d="M217.7,286.53h-4.72v-3.66h12.96v3.66h-4.7v13.84h-3.54V286.53z"/>
		<path class="st37" d="M228.29,282.88h3.81c1.89,0,3.36,0.15,4.63,1.23c1.11,0.94,1.74,2.4,1.74,3.9c0,2.2-0.97,3.9-2.77,4.84
			l4.53,7.51h-4.04l-3.96-6.87h-0.5v6.87h-3.44V282.88z M231.73,286.06v4.84h0.75c1.8,0,2.75-0.89,2.75-2.47
			c0-1.75-0.96-2.37-2.91-2.37H231.73z"/>
		<path class="st37" d="M242.29,282.88h9.14v3.61h-5.7v3.16h4.88v3.58h-4.88v3.46h5.79v3.68h-9.22V282.88z"/>
		<path class="st37" d="M254.87,282.88h3.5v7.61l4.9-7.61h4.22l-5.6,8.33l6.04,9.17h-4.28l-5.28-8.06v8.06h-3.5V282.88z"/>
		<path class="st37" d="M273.32,297.21c1.28,0,2.03-0.74,2.03-1.7c0-1.21-0.96-1.7-2.47-2.74l-1.01-0.67
			c-1.95-1.31-2.87-2.92-2.87-4.99c0-2.74,1.91-4.82,4.84-4.82c1.11,0,2.35,0.32,3.75,0.89v4.1c-1.57-1.16-2.87-1.66-3.67-1.66
			c-1.01,0-1.61,0.54-1.61,1.41c0,0.59,0.34,1.14,1.03,1.58l1.74,1.14c2.16,1.41,3.69,2.69,3.69,5.49c0,3.29-2.03,5.71-5.41,5.71
			c-1.15,0-2.46-0.3-3.94-0.84l-0.29-4.67C270.63,296.51,271.89,297.21,273.32,297.21z"/>
	</g>
</g>
</svg>
