<?xml version="1.0" encoding="utf-8"?>
<!-- Generator: Adobe Illustrator 27.0.0, SVG Export Plug-In . SVG Version: 6.00 Build 0)  -->
<svg version="1.1" id="Layer_1" xmlns="http://www.w3.org/2000/svg" xmlns:xlink="http://www.w3.org/1999/xlink" x="0px" y="0px"
	 viewBox="0 0 323 378" style="enable-background:new 0 0 323 378;" xml:space="preserve">
<style type="text/css">
	.st0{filter:url(#Adobe_OpacityMaskFilter);}
	.st1{fill:url(#SVGID_00000183942537713722420760000012637317409015787449_);}
	.st2{opacity:0.61;mask:url(#SVGID_1_);}
	.st3{fill:url(#SVGID_00000048463693077956575220000006486789873896340396_);}
	.st4{fill:url(#SVGID_00000026856271659716505950000010924596094022270637_);}
	.st5{fill:url(#SVGID_00000158728948976820519770000010407841809494133934_);}
	.st6{fill:url(#SVGID_00000058589039414441245980000001441103872175068340_);}
	.st7{fill:url(#SVGID_00000063628983485505857240000005231345019351454108_);}
	.st8{fill:url(#SVGID_00000062162827711636803960000015874123369992273326_);}
	.st9{fill:url(#SVGID_00000145743991683990962670000017058625041732506031_);}
	.st10{fill:url(#SVGID_00000160185706694563854740000010999641535366789304_);}
	.st11{fill:url(#SVGID_00000169518513198025496740000013851934915098088366_);}
	.st12{fill:url(#SVGID_00000032637172323262492960000009776443043217451153_);}
	.st13{fill:url(#SVGID_00000147932350482107722940000016520647094200700835_);}
	.st14{fill:url(#SVGID_00000004512398439879361620000003303541126490825404_);}
	.st15{fill:url(#SVGID_00000138533386925428619280000013404629732188028583_);}
	.st16{fill:url(#SVGID_00000139972219424586199600000014276813355617239944_);}
	.st17{fill:url(#SVGID_00000146488767740220669630000017978534827597448115_);}
	.st18{fill:url(#SVGID_00000155834879524741425850000007308473308274050213_);}
	.st19{fill:#EA9323;}
	.st20{fill:url(#SVGID_00000165943907647938918580000000092847329024583053_);}
	.st21{fill:url(#SVGID_00000049209290711842724860000001028996137203358880_);}
	.st22{fill:url(#SVGID_00000121262491985566666200000000674176206187904386_);}
	.st23{fill:url(#SVGID_00000036240279792233400710000003068795597969856388_);}
	.st24{fill:url(#SVGID_00000127764114158577668400000017645348691876808369_);}
	.st25{fill:url(#SVGID_00000077312788525369296780000016347983457358646930_);}
	.st26{fill:url(#SVGID_00000052793996421680438290000008465559342403457931_);}
	.st27{fill:url(#SVGID_00000085949915438031696620000007273576785773995700_);}
	.st28{fill:url(#SVGID_00000035499293265437441990000015148181025784099227_);}
	.st29{fill:url(#SVGID_00000112634694727598877330000002020829383788288149_);}
	.st30{fill:url(#SVGID_00000038388406412715381350000017741414820089019021_);}
	.st31{fill:url(#SVGID_00000028300950103584705500000015391278313341762452_);}
	.st32{fill:url(#SVGID_00000182500073268106060740000007406251692621755556_);}
	.st33{fill:url(#SVGID_00000000223672268863046250000003006309992203755138_);}
	.st34{fill:url(#SVGID_00000076590665715908804610000016999177546443189428_);}
	.st35{filter:url(#Adobe_OpacityMaskFilter_00000039132907351962072040000000110932229792199558_);}
	.st36{opacity:0.2;mask:url(#SVGID_00000092426722323611854800000015500243375834992308_);}
	.st37{fill:#FFFFFF;}
	.st38{fill:url(#SVGID_00000044173151617225228170000014600289699792008359_);}
	.st39{filter:url(#Adobe_OpacityMaskFilter_00000145040182862317719860000002190690853448997763_);}
	.st40{opacity:0.2;mask:url(#SVGID_00000029732146967400965310000003324700563557130404_);}
	.st41{fill:url(#SVGID_00000146462855786310092570000015517130966744155795_);}
	.st42{filter:url(#Adobe_OpacityMaskFilter_00000088133902344717478030000011177162372575495070_);}
	.st43{opacity:0.2;mask:url(#SVGID_00000041291524710620097720000002071738706299263152_);}
	.st44{fill:url(#SVGID_00000011712968756778426580000014605937809421150355_);}
	.st45{filter:url(#Adobe_OpacityMaskFilter_00000180349323228775837090000017968298728235317904_);}
	.st46{opacity:0.2;mask:url(#SVGID_00000052802557616093926560000002446020980616467593_);}
	.st47{fill:url(#SVGID_00000126296247439418564640000016816693248294360738_);}
	.st48{filter:url(#Adobe_OpacityMaskFilter_00000055704940446350730590000000363655979581756088_);}
	.st49{opacity:0.2;mask:url(#SVGID_00000098184454121895899310000005034150993672247465_);}
	.st50{fill:url(#SVGID_00000062881108062740910080000003622799695361991572_);}
	.st51{filter:url(#Adobe_OpacityMaskFilter_00000180343661565410844490000018441532506437003683_);}
	.st52{opacity:0.2;mask:url(#SVGID_00000065072889575353417270000006375192219182422412_);}
	.st53{fill:url(#SVGID_00000147215107036929980430000018085186210387124151_);}
	.st54{filter:url(#Adobe_OpacityMaskFilter_00000144338437641066932890000000059626120516511109_);}
	.st55{opacity:0.2;mask:url(#SVGID_00000144310936275403051280000007515487376657242507_);}
	.st56{fill:url(#SVGID_00000100376140012274158080000007207368181233888671_);}
	.st57{filter:url(#Adobe_OpacityMaskFilter_00000082334975678813906650000014867494050418167714_);}
	.st58{opacity:0.2;mask:url(#SVGID_00000070797438854176987650000008227693635138858162_);}
	.st59{fill:url(#SVGID_00000146493875457491700750000007178213914296672187_);}
	.st60{filter:url(#Adobe_OpacityMaskFilter_00000106854090765853698210000001906860760256060061_);}
	.st61{opacity:0.2;mask:url(#SVGID_00000168099385308446953920000011988441815686927495_);}
	.st62{fill:url(#SVGID_00000067218693824392146610000011001808136318412219_);}
	.st63{filter:url(#Adobe_OpacityMaskFilter_00000026136692932686414820000000101320130357347482_);}
	.st64{opacity:0.2;mask:url(#SVGID_00000072268935231058805690000017504565127857632394_);}
	.st65{fill:url(#SVGID_00000163760641552150734010000009039956968270773439_);}
	.st66{filter:url(#Adobe_OpacityMaskFilter_00000031176565796150409700000010925853103382613690_);}
	.st67{opacity:0.2;mask:url(#SVGID_00000045604740851635572650000000623221032657641406_);}
	.st68{fill:url(#SVGID_00000139282595485304897920000015751997327793085059_);}
	.st69{filter:url(#Adobe_OpacityMaskFilter_00000024720509105978645510000013710440841158577843_);}
	.st70{opacity:0.2;mask:url(#SVGID_00000151522631349448187830000014548239990637835692_);}
	.st71{fill:url(#SVGID_00000014626672070968835890000011010727316072543934_);}
	.st72{filter:url(#Adobe_OpacityMaskFilter_00000052805687706061458260000001550613115293600424_);}
	.st73{opacity:0.2;mask:url(#SVGID_00000063628788527908459930000016319021308023141567_);}
	.st74{fill:url(#SVGID_00000157306790784934082240000004252042495963216295_);}
	.st75{filter:url(#Adobe_OpacityMaskFilter_00000175281644231597786600000017143936377151176892_);}
	.st76{opacity:0.2;mask:url(#SVGID_00000102512501108706708280000006817898353224960905_);}
	.st77{opacity:0;fill:#939598;}
	.st78{opacity:0.0435;fill:#939598;}
	.st79{opacity:0.087;fill:#939598;}
	.st80{opacity:0.1304;fill:#939598;}
	.st81{opacity:0.1739;fill:#939598;}
	.st82{opacity:0.2174;fill:#939598;}
	.st83{opacity:0.2609;fill:#939598;}
	.st84{opacity:0.3043;fill:#939598;}
	.st85{opacity:0.3478;fill:#939598;}
	.st86{opacity:0.3913;fill:#939598;}
	.st87{opacity:0.4348;fill:#939598;}
	.st88{opacity:0.4783;fill:#939598;}
	.st89{opacity:0.5217;fill:#939598;}
	.st90{opacity:0.5652;fill:#939598;}
	.st91{opacity:0.6087;fill:#939598;}
	.st92{opacity:0.6522;fill:#939598;}
	.st93{opacity:0.6957;fill:#939598;}
	.st94{opacity:0.7391;fill:#939598;}
	.st95{opacity:0.7826;fill:#939598;}
	.st96{opacity:0.8261;fill:#939598;}
	.st97{opacity:0.8696;fill:#939598;}
	.st98{opacity:0.913;fill:#939598;}
	.st99{opacity:0.9565;fill:#939598;}
	.st100{fill:#939598;}
	.st101{enable-background:new    ;}
	.st102{clip-path:url(#SVGID_00000084523297397564033340000016452636880273403036_);enable-background:new    ;}
	.st103{fill:#9E6410;}
	.st104{fill:#9A610E;}
	.st105{fill:#965F0D;}
	.st106{fill:#935C0B;}
	.st107{fill:#8F5A09;}
	.st108{fill:#8B5707;}
	.st109{fill:#D0831E;}
	.st110{opacity:0;fill:#FFFFFF;}
	.st111{opacity:0.0435;fill:#FFFFFF;}
	.st112{opacity:0.087;fill:#FFFFFF;}
	.st113{opacity:0.1304;fill:#FFFFFF;}
	.st114{opacity:0.1739;fill:#FFFFFF;}
	.st115{opacity:0.2174;fill:#FFFFFF;}
	.st116{opacity:0.2609;fill:#FFFFFF;}
	.st117{opacity:0.3043;fill:#FFFFFF;}
	.st118{opacity:0.3478;fill:#FFFFFF;}
	.st119{opacity:0.3913;fill:#FFFFFF;}
	.st120{opacity:0.4348;fill:#FFFFFF;}
	.st121{opacity:0.4783;fill:#FFFFFF;}
	.st122{opacity:0.5217;fill:#FFFFFF;}
	.st123{opacity:0.5652;fill:#FFFFFF;}
	.st124{opacity:0.6087;fill:#FFFFFF;}
	.st125{opacity:0.6522;fill:#FFFFFF;}
	.st126{opacity:0.6957;fill:#FFFFFF;}
	.st127{opacity:0.7391;fill:#FFFFFF;}
	.st128{opacity:0.7826;fill:#FFFFFF;}
	.st129{opacity:0.8261;fill:#FFFFFF;}
	.st130{opacity:0.8696;fill:#FFFFFF;}
	.st131{opacity:0.913;fill:#FFFFFF;}
	.st132{opacity:0.9565;fill:#FFFFFF;}
	.st133{clip-path:url(#SVGID_00000173132159086849454810000016697633308569035136_);enable-background:new    ;}
	.st134{fill:#A16615;}
	.st135{fill:#9D6314;}
	.st136{fill:#996113;}
	.st137{fill:#965E11;}
	.st138{fill:#925C0F;}
	.st139{fill:#8E590D;}
	.st140{fill:#D48624;}
	.st141{clip-path:url(#SVGID_00000008137269068677061730000013676058554966928055_);enable-background:new    ;}
	.st142{fill:#A6750A;}
	.st143{fill:#A27208;}
	.st144{fill:#9E6F07;}
	.st145{fill:#9A6C05;}
	.st146{fill:#976A04;}
	.st147{fill:#936702;}
	.st148{fill:#DB9917;}
	.st149{opacity:0;fill:#F7F5F0;}
	.st150{opacity:0.0435;fill:#F7F5F0;}
	.st151{opacity:0.087;fill:#F7F5F0;}
	.st152{opacity:0.1304;fill:#F7F5F0;}
	.st153{opacity:0.1739;fill:#F7F5F0;}
	.st154{opacity:0.2174;fill:#F7F5F0;}
	.st155{opacity:0.2609;fill:#F7F5F0;}
	.st156{opacity:0.3043;fill:#F7F5F0;}
	.st157{opacity:0.3478;fill:#F7F5F0;}
	.st158{opacity:0.3913;fill:#F7F5F0;}
	.st159{opacity:0.4348;fill:#F7F5F0;}
	.st160{opacity:0.4783;fill:#F7F5F0;}
	.st161{opacity:0.5217;fill:#F7F5F0;}
	.st162{opacity:0.5652;fill:#F7F5F0;}
	.st163{opacity:0.6087;fill:#F7F5F0;}
	.st164{opacity:0.6522;fill:#F7F5F0;}
	.st165{opacity:0.6957;fill:#F7F5F0;}
	.st166{opacity:0.7391;fill:#F7F5F0;}
	.st167{opacity:0.7826;fill:#F7F5F0;}
	.st168{opacity:0.8261;fill:#F7F5F0;}
	.st169{opacity:0.8696;fill:#F7F5F0;}
	.st170{opacity:0.913;fill:#F7F5F0;}
	.st171{opacity:0.9565;fill:#F7F5F0;}
	.st172{fill:#F7F5F0;}
	.st173{opacity:0.6;clip-path:url(#SVGID_00000017489211039751614600000016901769252361711002_);enable-background:new    ;}
	.st174{opacity:0.6;fill:#DB9917;}
	.st175{opacity:0.6;}
	.st176{opacity:0.6;clip-path:url(#SVGID_00000084529733174097473150000010065580616011891636_);enable-background:new    ;}
	.st177{clip-path:url(#SVGID_00000053504543155725177840000006747627137901395121_);enable-background:new    ;}
	.st178{clip-path:url(#SVGID_00000110451975294832699730000010663754855385148346_);enable-background:new    ;}
	.st179{clip-path:url(#SVGID_00000087384948910611451280000018180069977020960917_);enable-background:new    ;}
	.st180{clip-path:url(#SVGID_00000176762435355896575000000014318105194540809911_);enable-background:new    ;}
	.st181{opacity:0.8;clip-path:url(#SVGID_00000003095865665774140330000007661954369849193627_);enable-background:new    ;}
	.st182{opacity:0.8;fill:#DB9917;}
	.st183{opacity:0.8;}
	.st184{opacity:0.8;clip-path:url(#SVGID_00000141413857857559277000000007033598882270558139_);enable-background:new    ;}
	.st185{opacity:0.6;clip-path:url(#SVGID_00000064319790273554490310000017738097983473152157_);enable-background:new    ;}
	.st186{opacity:0.6;clip-path:url(#SVGID_00000020391329161782813010000005141724104154282896_);enable-background:new    ;}
	.st187{clip-path:url(#SVGID_00000169526301089603152550000002948887866350617004_);enable-background:new    ;}
	.st188{clip-path:url(#SVGID_00000162312789516553550510000018215533705022484878_);enable-background:new    ;}
	.st189{opacity:0.8;clip-path:url(#SVGID_00000083081682007768321710000012093435739553517191_);enable-background:new    ;}
	.st190{opacity:0.8;clip-path:url(#SVGID_00000160903785195102557780000000226718105932132791_);enable-background:new    ;}
	.st191{opacity:0.6;clip-path:url(#SVGID_00000134245090647901382670000006335344821226265479_);enable-background:new    ;}
	.st192{opacity:0.6;clip-path:url(#SVGID_00000150060224931306291560000012650271018803320984_);enable-background:new    ;}
	.st193{opacity:0.8;clip-path:url(#SVGID_00000131346270352502118150000007420830902179267727_);enable-background:new    ;}
	.st194{opacity:0.8;clip-path:url(#SVGID_00000121240621456014536040000016478496115806863020_);enable-background:new    ;}
	.st195{opacity:0.6;clip-path:url(#SVGID_00000132768705481634801170000003234532682914890890_);enable-background:new    ;}
	.st196{fill:none;stroke:#FFFFFF;stroke-width:0.25;stroke-miterlimit:10;}
	.st197{opacity:0.6;clip-path:url(#SVGID_00000131351472950990651850000004033625960859154819_);enable-background:new    ;}
	.st198{opacity:0.6;clip-path:url(#SVGID_00000047782541375839838910000010072152657739161220_);enable-background:new    ;}
	.st199{opacity:0.6;clip-path:url(#SVGID_00000182496731430034663510000011313059201160011904_);enable-background:new    ;}
	.st200{fill:url(#SVGID_00000058559338514626058380000005113914747129361326_);}
	.st201{fill:url(#SVGID_00000046299938547613384920000004192177309677024947_);}
	.st202{fill:url(#SVGID_00000136390988077820203620000005965787631430433458_);}
	.st203{fill:url(#SVGID_00000145052561574905644520000018292517904582158510_);}
	.st204{fill:url(#SVGID_00000035496961028323302320000010590905962477352111_);}
	.st205{fill:url(#SVGID_00000136374975509059392680000001189344718978891170_);}
	.st206{fill:url(#SVGID_00000063622348070572368120000013633619308046166419_);}
	.st207{fill:url(#SVGID_00000158012605019468710280000011437629035709926543_);}
	.st208{fill:url(#SVGID_00000058584059808528598590000007118951376078539412_);}
	.st209{fill:url(#SVGID_00000117635136918560423510000009901003275622699174_);}
	.st210{fill:url(#SVGID_00000039097140819126015980000011837424248703105974_);}
	.st211{fill:url(#SVGID_00000071557989644960146120000001885879208065209502_);}
	.st212{fill:url(#SVGID_00000124846962476556204310000002721009294039767449_);}
	.st213{fill:url(#SVGID_00000057138555528824158640000001584517433651574680_);}
	.st214{fill:url(#SVGID_00000078743115547095122390000000066860826409801913_);}
	.st215{fill:url(#SVGID_00000001635212580847219410000006624296552493385605_);}
	.st216{fill:url(#SVGID_00000165192050645195378500000007010275141995896495_);}
	.st217{fill:url(#SVGID_00000122002296209572977920000006430773435635398573_);}
	.st218{fill:url(#SVGID_00000106854707644258710850000011849533941082163384_);}
	.st219{fill:url(#SVGID_00000053542738422475173160000017217438656090785924_);}
	.st220{fill:url(#SVGID_00000070111061745250928370000005058273406986270356_);}
	.st221{fill:url(#SVGID_00000018196056344025066200000004555814310632054162_);}
	.st222{fill:url(#SVGID_00000179611894212266462000000000304670988401445278_);}
	.st223{fill:url(#SVGID_00000145036225517953726860000007336795192037875645_);}
	.st224{fill:url(#SVGID_00000090990631064468858770000007254545688285489301_);}
	.st225{fill:url(#SVGID_00000070824133901829661300000005476590172904195759_);}
	.st226{fill:url(#SVGID_00000051362523164044943930000008634559889286380429_);}
	.st227{fill:url(#SVGID_00000140696743126152385920000017716180606087747985_);}
	.st228{fill:url(#SVGID_00000010306810306994914410000004732995287450363278_);}
	.st229{fill:url(#SVGID_00000170269634990144661590000002590521224231995790_);}
	.st230{fill:url(#SVGID_00000150083704613333495390000014276868132482497715_);}
	.st231{fill:url(#SVGID_00000106135190486284191490000008269404448322023585_);}
	.st232{fill:url(#SVGID_00000093878465985416159720000005318161825213220787_);}
	.st233{fill:#FBB040;}
	.st234{fill:#F1F2F2;}
	.st235{fill:url(#SVGID_00000108991710371502040860000015531280435114990745_);}
	.st236{fill:url(#SVGID_00000080187077775618851730000011145712992118515849_);}
	.st237{fill:url(#SVGID_00000057844654835243397810000005851458235473715641_);}
	.st238{fill:url(#SVGID_00000021095633291490732090000003089566903969465486_);}
	.st239{fill:url(#SVGID_00000111149460034227297630000012452167233695929774_);}
	.st240{fill:url(#SVGID_00000098191951240632819160000011492164730198392460_);}
	.st241{fill:url(#SVGID_00000018228542396832265570000014036807841258623135_);}
	.st242{fill:url(#SVGID_00000033330956136747168010000005914073196706857127_);}
	.st243{fill:url(#SVGID_00000009562920367251002560000003804119359660584610_);}
	.st244{fill:url(#SVGID_00000105402021067253361190000010854475935800608698_);}
	.st245{fill:url(#SVGID_00000115479038758432403210000004442261615730436539_);}
	.st246{fill:url(#SVGID_00000173118857237094955320000009739462215161985956_);}
	.st247{fill:url(#SVGID_00000047779330147722378100000000415600535674696621_);}
	.st248{fill:url(#SVGID_00000181070451326650908910000014785970158753343919_);}
	.st249{fill:url(#SVGID_00000158007206693343580450000006367854054748945291_);}
	.st250{fill:url(#SVGID_00000005957932898449653080000011159074689382341543_);}
	.st251{fill:url(#SVGID_00000182498220718748751330000018307447147728491648_);}
	.st252{fill:url(#SVGID_00000119838125986408231340000011606766674176696709_);}
	.st253{fill:url(#SVGID_00000111156629721318477310000003916161392941160080_);}
	.st254{fill:url(#SVGID_00000115491819970901972130000015975739676865302152_);}
	.st255{fill:url(#SVGID_00000000944359995825028210000014020451869813477787_);}
	.st256{fill:url(#SVGID_00000057835305683097872760000017766591791048988058_);}
	.st257{fill:url(#SVGID_00000021079591877672993990000002955383526437544837_);}
	.st258{fill:url(#SVGID_00000057121526394144061740000009409498080446684087_);}
	.st259{fill:url(#SVGID_00000011750924812339422630000002418524784196476060_);}
	.st260{fill:url(#SVGID_00000083084737508952076940000001435689716292055187_);}
	.st261{fill:url(#SVGID_00000109738988672275363440000014558107283520692131_);}
	.st262{fill:url(#SVGID_00000003095035508216976810000006686590265939195010_);}
	.st263{fill:url(#SVGID_00000173850392433208993470000012999131269092277416_);}
	.st264{fill:url(#SVGID_00000170276961251712822680000007865366800703783307_);}
	.st265{fill:url(#SVGID_00000006667841095189890800000007666266560570111364_);}
	.st266{fill:url(#SVGID_00000183934907503143313400000008107973014013297852_);}
	.st267{fill:url(#SVGID_00000020395122623159331190000013767577860188837515_);}
	.st268{fill:url(#SVGID_00000092432554429854016960000016439082307589941938_);}
	.st269{fill:url(#SVGID_00000035505109235198769920000003982525312102065055_);}
	.st270{fill:url(#SVGID_00000009559271265369385230000017440413951490778774_);}
	.st271{fill:url(#SVGID_00000145052717012899403820000002132306114320611004_);}
	.st272{fill:url(#SVGID_00000080886202537935202980000005289155194526846346_);}
	.st273{fill:url(#SVGID_00000052074981633228300850000002253429103515754881_);}
	.st274{fill:url(#SVGID_00000005228865074918848090000003819683170637864336_);}
	.st275{fill:url(#SVGID_00000065062583676974177000000002302687308120188053_);}
	.st276{fill:url(#SVGID_00000132772613634910921990000014371257484597000598_);}
	.st277{fill:url(#SVGID_00000096738038668552142670000010542199087752284041_);}
	.st278{fill:url(#SVGID_00000138558772211729054640000017000838601589831097_);}
	.st279{fill:url(#SVGID_00000109721795546251461790000006042921117666526380_);}
	.st280{fill:url(#SVGID_00000129909719673215717090000007287923496939070364_);}
	.st281{fill:#F7941D;}
	.st282{fill:#E1A74F;}
	.st283{fill:#C5C5BF;}
	.st284{fill:none;stroke:#000000;stroke-miterlimit:10;}
	.st285{fill:none;stroke:#E1A74F;stroke-width:0.5;stroke-miterlimit:10;}
	.st286{fill:none;stroke:url(#SVGID_00000065752711612041758210000005635276470470029983_);stroke-miterlimit:10;}
	.st287{fill:#D5872A;}
	.st288{fill:#BE1E2D;}
	.st289{fill:none;stroke:url(#SVGID_00000034786962740201282250000015235461854826743437_);stroke-miterlimit:10;}
	.st290{fill:url(#SVGID_00000084490189346131673070000006990990745269000602_);}
	.st291{fill:url(#SVGID_00000078040674086207438210000006813698484386498977_);}
	.st292{fill:url(#SVGID_00000177444880903985703400000003445093276069845647_);}
	.st293{fill:url(#SVGID_00000170996003003662346670000010788846580877665930_);}
	.st294{fill:url(#SVGID_00000052103063917257868090000010703211191039971484_);}
	.st295{fill:url(#SVGID_00000152974798653816502520000001242215777042971024_);}
	.st296{fill:url(#SVGID_00000072276266506396351920000013003736660875657865_);}
	.st297{fill:url(#SVGID_00000102515749066058760800000008516955658231240113_);}
	.st298{fill:url(#SVGID_00000021817563655312532050000010546059094614577043_);}
	.st299{fill:url(#SVGID_00000017475428075302992200000004839054724015932552_);}
	.st300{fill:url(#SVGID_00000122711842665068040960000002078297409228977330_);}
	.st301{fill:url(#SVGID_00000089552037215139575540000017047208139477841823_);}
	.st302{fill:url(#SVGID_00000031196470306606974490000017255498602958613421_);}
	.st303{fill:url(#SVGID_00000054232433404411811770000004247717112136788898_);}
	.st304{fill:url(#SVGID_00000005951429459611611460000014126436534559177395_);}
	.st305{fill:url(#SVGID_00000077314697926835069310000004010582045187498154_);}
	.st306{fill:url(#SVGID_00000080171422251462538100000006111009806011103117_);}
	.st307{fill:url(#SVGID_00000152236188964573682920000011832159651112587406_);}
	.st308{fill:url(#SVGID_00000022559200698984629630000007704106941501085073_);}
	.st309{fill:url(#SVGID_00000038411988225495318560000000115689243425015222_);}
	.st310{fill:url(#SVGID_00000181769178677287859510000007166671103277742780_);}
	.st311{fill:url(#SVGID_00000011754106271649931270000006126592525593556118_);}
	.st312{fill:url(#SVGID_00000132805562022195853090000005614473142615951782_);}
	.st313{fill:url(#SVGID_00000085932370174457037930000007792237805847051701_);}
	.st314{fill:url(#SVGID_00000099663172362986370050000000436778317291341973_);}
	.st315{fill:url(#SVGID_00000151520258092903098710000014912451070837044636_);}
	.st316{fill:url(#SVGID_00000003068472532311967440000002571707014225578885_);}
	.st317{fill:url(#SVGID_00000137131525245689616830000010013618264682689441_);}
	.st318{fill:url(#SVGID_00000155109031788078551770000006027273961544928440_);}
	.st319{fill:url(#SVGID_00000042718198408323545290000003112666760102991541_);}
	.st320{fill:url(#SVGID_00000078738088279881513280000005744939720828169127_);}
	.st321{fill:url(#SVGID_00000046322389435364765420000002552260524133652668_);}
	.st322{fill:url(#SVGID_00000149365192703839953390000011132184800182539937_);}
	.st323{fill:url(#SVGID_00000125583860416323285820000015758114043610778498_);}
	.st324{fill:url(#SVGID_00000066480304466878547290000017005186385053719991_);}
	.st325{fill:url(#SVGID_00000023997006447451742370000014365249326666717589_);}
	.st326{fill:url(#SVGID_00000139999947175640280270000017547109618551425725_);}
	.st327{fill:url(#SVGID_00000052104215952201421350000012135026157625849270_);}
	.st328{fill:url(#SVGID_00000060719407732499940260000014397719156111564935_);}
	.st329{fill:url(#SVGID_00000067935028632466055940000011355418451177290174_);}
	.st330{fill:url(#SVGID_00000101820544528525689100000012911749494455530415_);}
	.st331{fill:url(#SVGID_00000001644331044812152620000011740213115275924159_);}
	.st332{fill:url(#SVGID_00000000917411203150587980000016255247025087466677_);}
	.st333{fill:url(#SVGID_00000056427890709963521290000008508277654111222713_);}
	.st334{fill:url(#SVGID_00000137134256140300851100000018123086410229919924_);}
	.st335{fill:url(#SVGID_00000110451244572698059620000015695664517485547188_);}
	.st336{fill:url(#SVGID_00000039114525452533749130000008608821573436718986_);}
	.st337{fill:url(#SVGID_00000075852913957486858170000009582459847410763918_);}
	.st338{fill:url(#SVGID_00000115480424294734108480000004563430399568543150_);}
	.st339{fill:url(#SVGID_00000116945756178414320930000006202655946082844585_);}
	.st340{fill:url(#SVGID_00000033332820401066778650000011888950469818227608_);}
	.st341{fill:url(#SVGID_00000134936236650951099890000014940228840178034094_);}
	.st342{fill:url(#SVGID_00000181066826130836959170000014408192018630508163_);}
	.st343{fill:url(#SVGID_00000106140162224010714330000017009318134043715261_);}
	.st344{fill:url(#SVGID_00000131368514685600879020000012214800937273002170_);}
	.st345{fill:url(#SVGID_00000035530344738125656540000011444659953309007023_);}
	.st346{fill:url(#SVGID_00000088092712660052760170000005436429657794946489_);}
	.st347{fill:url(#SVGID_00000150075043182797860910000002324991995855509916_);}
	.st348{fill:url(#SVGID_00000097475562794713780000000012296902750644548752_);}
	.st349{fill:url(#SVGID_00000110451699591926615030000010637281085965951909_);}
	.st350{fill:#FFCB28;}
	.st351{fill:#C9CBCB;stroke:#FFFFFF;stroke-width:5;stroke-miterlimit:10;}
	.st352{fill:none;}
	.st353{fill:none;stroke:#000000;stroke-width:0.25;stroke-miterlimit:10;}
	.st354{fill:#0F2D3F;}
	.st355{fill:none;stroke:#FFFFFF;stroke-miterlimit:10;}
	.st356{fill:none;stroke:#FFFFFF;stroke-width:3;stroke-miterlimit:10;}
	.st357{fill:url(#SVGID_00000029038652392980493720000016293955067356926364_);}
	.st358{fill:#FFCC66;}
</style>
<g>
	<g>
		<path class="st281" d="M110.79,249.37c0,9.59-7.78,17.37-17.37,17.37c-9.6,0-17.37-7.78-17.37-17.37
			c0-9.59,7.77-17.37,17.37-17.37C103.02,232,110.79,239.77,110.79,249.37z"/>
		<path class="st281" d="M155.79,249.37c0,8.32-6.74,15.05-15.05,15.05c-8.31,0-15.05-6.74-15.05-15.05
			c0-8.31,6.74-15.05,15.05-15.05C149.05,234.32,155.79,241.05,155.79,249.37z"/>
		<path class="st281" d="M201.95,249.37c0,7.68-6.22,13.9-13.89,13.9c-7.67,0-13.9-6.22-13.9-13.9c0-7.67,6.23-13.89,13.9-13.89
			C195.73,235.47,201.95,241.69,201.95,249.37z"/>
		<path class="st281" d="M246.94,249.37c0,6.4-5.18,11.58-11.58,11.58c-6.4,0-11.58-5.18-11.58-11.58c0-6.39,5.18-11.58,11.58-11.58
			C241.76,237.79,246.94,242.97,246.94,249.37z"/>
		<path class="st281" d="M123.17,207.92c0,8.32-6.74,15.05-15.05,15.05c-8.32,0-15.05-6.74-15.05-15.05
			c0-8.31,6.73-15.05,15.05-15.05C116.43,192.87,123.17,199.6,123.17,207.92z"/>
		<path class="st281" d="M162.23,207.92c0,7.04-5.71,12.74-12.74,12.74c-7.04,0-12.74-5.7-12.74-12.74c0-7.03,5.7-12.74,12.74-12.74
			C156.53,195.18,162.23,200.88,162.23,207.92z"/>
		<path class="st281" d="M195.5,207.92c0,5.76-4.67,10.42-10.42,10.42c-5.76,0-10.42-4.66-10.42-10.42
			c0-5.75,4.66-10.42,10.42-10.42C190.84,197.5,195.5,202.16,195.5,207.92z"/>
		<path class="st281" d="M229.94,207.92c0,5.12-4.15,9.26-9.26,9.26c-5.12,0-9.26-4.15-9.26-9.26c0-5.12,4.15-9.26,9.26-9.26
			C225.79,198.66,229.94,202.8,229.94,207.92z"/>
		<path class="st281" d="M140.6,166.76c0,7.04-5.7,12.74-12.74,12.74c-7.03,0-12.74-5.7-12.74-12.74c0-7.03,5.7-12.73,12.74-12.73
			C134.9,154.03,140.6,159.73,140.6,166.76z"/>
		<path class="st281" d="M174.82,166.76c0,5.76-4.66,10.42-10.42,10.42c-5.76,0-10.42-4.67-10.42-10.42
			c0-5.75,4.66-10.42,10.42-10.42C170.15,156.34,174.82,161.01,174.82,166.76z"/>
		<path class="st281" d="M209.03,166.76c0,4.48-3.63,8.11-8.11,8.11c-4.48,0-8.1-3.63-8.1-8.11c0-4.48,3.63-8.1,8.1-8.1
			C205.4,158.66,209.03,162.29,209.03,166.76z"/>
		<path class="st281" d="M156.75,125.81c0,5.76-4.67,10.42-10.42,10.42c-5.76,0-10.42-4.66-10.42-10.42
			c0-5.75,4.66-10.42,10.42-10.42C152.09,115.39,156.75,120.05,156.75,125.81z"/>
		<path class="st281" d="M189.4,125.81c0,3.84-3.11,6.95-6.95,6.95c-3.84,0-6.95-3.11-6.95-6.95c0-3.84,3.11-6.95,6.95-6.95
			C186.29,118.86,189.4,121.97,189.4,125.81z"/>
		<path class="st281" d="M172.5,85.07c0,4.48-3.63,8.11-8.11,8.11c-4.48,0-8.11-3.63-8.11-8.11c0-4.48,3.63-8.1,8.11-8.1
			C168.87,76.96,172.5,80.59,172.5,85.07z"/>
	</g>
	<g>
		<path class="st281" d="M48.55,297.21c1.28,0,2.03-0.74,2.03-1.7c0-1.21-0.97-1.7-2.47-2.74l-1.01-0.67
			c-1.95-1.31-2.87-2.92-2.87-4.99c0-2.74,1.91-4.82,4.84-4.82c1.11,0,2.35,0.32,3.75,0.89v4.1c-1.57-1.16-2.87-1.66-3.67-1.66
			c-1.01,0-1.61,0.54-1.61,1.41c0,0.59,0.33,1.14,1.03,1.58l1.74,1.14c2.16,1.41,3.69,2.69,3.69,5.49c0,3.29-2.03,5.71-5.41,5.71
			c-1.15,0-2.45-0.3-3.94-0.84l-0.29-4.67C45.87,296.51,47.13,297.21,48.55,297.21z"/>
		<path class="st281" d="M57.23,282.88h9.14v3.61h-5.7v3.16h4.88v3.58h-4.88v3.46h5.79v3.68h-9.22V282.88z"/>
		<path class="st281" d="M74.61,301.04l-7-18.16h3.75l3.5,9.56l3.52-9.56h3.48l-7,18.16H74.61z"/>
		<path class="st281" d="M83.71,282.88h9.14v3.61h-5.7v3.16h4.88v3.58h-4.88v3.46h5.79v3.68h-9.22V282.88z"/>
		<path class="st281" d="M96.28,282.31h0.33l9.24,10.2v-9.63h3.27v18.16h-0.31l-9.27-10.2v9.54h-3.27V282.31z"/>
		<path class="st281" d="M123.41,297.21c1.28,0,2.03-0.74,2.03-1.7c0-1.21-0.96-1.7-2.47-2.74l-1.01-0.67
			c-1.95-1.31-2.87-2.92-2.87-4.99c0-2.74,1.91-4.82,4.84-4.82c1.11,0,2.35,0.32,3.75,0.89v4.1c-1.57-1.16-2.87-1.66-3.67-1.66
			c-1.01,0-1.61,0.54-1.61,1.41c0,0.59,0.33,1.14,1.03,1.58l1.74,1.14c2.16,1.41,3.69,2.69,3.69,5.49c0,3.29-2.03,5.71-5.41,5.71
			c-1.15,0-2.45-0.3-3.94-0.84l-0.29-4.67C120.73,296.51,121.99,297.21,123.41,297.21z"/>
		<path class="st281" d="M135.44,292.49c0,3.09,0.96,4.62,2.91,4.62c1.84,0,2.89-1.41,2.89-4.2v-10.03h3.17v10.03
			c0,5.21-2.43,8.03-6.23,8.03c-3.84,0-6.25-2.79-6.25-8.01v-10.06h3.5V292.49z"/>
		<path class="st281" d="M150.18,282.31h0.25l5.6,11.39l5.28-11.39h0.27l3.1,18.06h-3.38l-1.26-7.98l-3.98,8.62h-0.23l-4.28-8.75
			l-1.3,8.1h-3.17L150.18,282.31z"/>
		<path class="st281" d="M169.36,282.31h0.25l5.6,11.39l5.28-11.39h0.27l3.1,18.06h-3.37l-1.26-7.98l-3.98,8.62h-0.23l-4.28-8.75
			l-1.3,8.1h-3.16L169.36,282.31z"/>
		<path class="st281" d="M186.72,282.88h3.54v17.49h-3.54V282.88z"/>
		<path class="st281" d="M197.39,286.53h-4.72v-3.66h12.96v3.66h-4.7v13.84h-3.54V286.53z"/>
		<path class="st281" d="M217.7,286.53h-4.72v-3.66h12.96v3.66h-4.7v13.84h-3.54V286.53z"/>
		<path class="st281" d="M228.29,282.88h3.81c1.89,0,3.36,0.15,4.63,1.23c1.11,0.94,1.74,2.4,1.74,3.9c0,2.2-0.97,3.9-2.77,4.84
			l4.53,7.51h-4.04l-3.96-6.87h-0.5v6.87h-3.44V282.88z M231.73,286.06v4.84h0.75c1.8,0,2.75-0.89,2.75-2.47
			c0-1.75-0.96-2.37-2.91-2.37H231.73z"/>
		<path class="st281" d="M242.29,282.88h9.14v3.61h-5.7v3.16h4.88v3.58h-4.88v3.46h5.79v3.68h-9.22V282.88z"/>
		<path class="st281" d="M254.87,282.88h3.5v7.61l4.9-7.61h4.22l-5.6,8.33l6.04,9.17h-4.28l-5.28-8.06v8.06h-3.5V282.88z"/>
		<path class="st281" d="M273.32,297.21c1.28,0,2.03-0.74,2.03-1.7c0-1.21-0.96-1.7-2.47-2.74l-1.01-0.67
			c-1.95-1.31-2.87-2.92-2.87-4.99c0-2.74,1.91-4.82,4.84-4.82c1.11,0,2.35,0.32,3.75,0.89v4.1c-1.57-1.16-2.87-1.66-3.67-1.66
			c-1.01,0-1.61,0.54-1.61,1.41c0,0.59,0.34,1.14,1.03,1.58l1.74,1.14c2.16,1.41,3.69,2.69,3.69,5.49c0,3.29-2.03,5.71-5.41,5.71
			c-1.15,0-2.46-0.3-3.94-0.84l-0.29-4.67C270.63,296.51,271.89,297.21,273.32,297.21z"/>
	</g>
</g>
</svg>
